<svg width="12" height="12" viewBox="0 0 12 12" fill="none" xmlns="http://www.w3.org/2000/svg">
<path d="M9.42367 6C9.8611 5.94828 10.2355 5.86406 10.4642 5.73205C11.4208 5.17976 11.7485 3.95658 11.1962 3C10.6439 2.04341 9.42077 1.71566 8.46418 2.26794C8.23552 2.39996 7.97539 2.68211 7.71188 3.03507C7.8858 2.63039 8.00008 2.26403 8.00008 2C8.00008 0.895431 7.10465 0 6.00008 0C4.89551 0 4.00008 0.895431 4.00008 2C4.00008 2.26403 4.11436 2.63039 4.28828 3.03507C4.02477 2.68211 3.76464 2.39996 3.53598 2.26794C2.57939 1.71566 1.35621 2.04341 0.803928 2.99999C0.251643 3.95658 0.579393 5.17976 1.53598 5.73205C1.76464 5.86406 2.13906 5.94828 2.57649 6C2.13906 6.05172 1.76464 6.13593 1.53598 6.26794C0.579393 6.82023 0.251643 8.04341 0.803928 9C1.35621 9.95658 2.57939 10.2843 3.53598 9.73205C3.76464 9.60003 4.02478 9.31788 4.28829 8.96491C4.11436 9.3696 4.00008 9.73596 4.00008 10C4.00008 11.1046 4.89551 12 6.00008 12C7.10465 12 8.00008 11.1046 8.00008 10C8.00008 9.73596 7.8858 9.3696 7.71187 8.96491C7.97538 9.31787 8.23552 9.60003 8.46418 9.73205C9.42077 10.2843 10.6439 9.95658 11.1962 9C11.7485 8.04341 11.4208 6.82023 10.4642 6.26794C10.2355 6.13593 9.8611 6.05172 9.42367 6ZM7.00008 2C6.99996 2.00226 6.99908 2.01826 6.99325 2.05085C6.98642 2.08902 6.97448 2.14022 6.95521 2.20536C6.91621 2.33722 6.85513 2.49965 6.77204 2.68876C6.60567 3.06743 6.37608 3.49699 6.13508 3.91243C6.09 3.99016 6.04486 4.06679 6.00008 4.14185C5.9553 4.06679 5.91016 3.99016 5.86508 3.91243C5.62408 3.49699 5.39449 3.06743 5.22812 2.68876C5.14504 2.49965 5.08395 2.33722 5.04495 2.20536C5.02568 2.14022 5.01374 2.08902 5.00691 2.05085C5.00108 2.01826 5.00021 2.00175 5.00008 1.99941C5.00008 1.44713 5.4478 1 6.00008 1C6.55237 1 7.00008 1.44772 7.00008 2ZM1.66995 3.49999C1.9461 3.0217 2.55743 2.8577 3.03572 3.13384C3.03555 3.13373 3.03572 3.13384 3.03572 3.13384C3.03768 3.13512 3.0513 3.14397 3.0766 3.16531C3.10624 3.19031 3.14461 3.22625 3.19139 3.27551C3.28608 3.37521 3.39621 3.50933 3.51844 3.67584C3.7632 4.00925 4.02041 4.42286 4.2597 4.83929C4.30446 4.9172 4.34826 4.99461 4.39088 5.07092C4.30348 5.07217 4.21454 5.07294 4.12469 5.07313C3.64441 5.07412 3.15761 5.05817 2.74648 5.01291C2.54117 4.99031 2.36995 4.962 2.23626 4.92984C2.17021 4.91396 2.1199 4.8987 2.08343 4.88553C2.05232 4.87429 2.03802 4.86705 2.03598 4.86602C2.0358 4.86593 2.03598 4.86602 2.03598 4.86602C1.55769 4.58988 1.39381 3.97829 1.66995 3.49999ZM3.03598 8.86602C2.55769 9.14216 1.9461 8.97829 1.66995 8.5C1.39381 8.0217 1.55718 7.41041 2.03547 7.13426C2.03759 7.13319 2.05234 7.12569 2.08343 7.11446C2.1199 7.10129 2.17021 7.08603 2.23626 7.07014C2.36995 7.03799 2.54117 7.00968 2.74648 6.98708C3.15761 6.94182 3.64441 6.92587 4.12469 6.92686C4.21454 6.92705 4.30348 6.92782 4.39088 6.92907C4.34826 7.00538 4.30446 7.08279 4.2597 7.1607C4.02041 7.57713 3.7632 7.99074 3.51844 8.32415C3.39621 8.49066 3.28608 8.62478 3.19139 8.72449C3.14461 8.77374 3.10624 8.80968 3.0766 8.83468C3.0513 8.85601 3.03788 8.86478 3.03598 8.86602C3.03598 8.86602 3.03582 8.86613 3.03598 8.86602ZM7.00008 10C7.00008 10.5523 6.55237 11 6.00008 11C5.4478 11 5.00008 10.5529 5.00008 10.0006C5.00021 9.99825 5.00108 9.98174 5.00691 9.94915C5.01374 9.91098 5.02568 9.85978 5.04495 9.79464C5.08395 9.66278 5.14504 9.50035 5.22812 9.31124C5.39449 8.93257 5.62408 8.50301 5.86508 8.08757C5.91016 8.00984 5.9553 7.93321 6.00008 7.85815C6.04486 7.93321 6.09 8.00984 6.13508 8.08757C6.37608 8.50301 6.60567 8.93257 6.77204 9.31124C6.85513 9.50035 6.91621 9.66278 6.95521 9.79464C6.97448 9.85978 6.98642 9.91098 6.99325 9.94915C6.99908 9.98174 6.99996 9.99774 7.00008 10ZM10.3302 3.5C10.6063 3.97829 10.4425 4.58988 9.96418 4.86602C9.96418 4.86602 9.96436 4.86593 9.96418 4.86602C9.96215 4.86705 9.94785 4.87429 9.91673 4.88553C9.88026 4.8987 9.82995 4.91396 9.7639 4.92985C9.63021 4.962 9.45899 4.99031 9.25368 5.01291C8.84255 5.05817 8.35575 5.07412 7.87547 5.07313C7.78562 5.07295 7.69668 5.07217 7.60928 5.07092C7.6519 4.99461 7.6957 4.9172 7.74046 4.8393C7.97975 4.42286 8.23696 4.00925 8.48172 3.67584C8.60395 3.50933 8.71408 3.37521 8.80877 3.27551C8.85555 3.22625 8.89392 3.19031 8.92356 3.16531C8.94888 3.14396 8.96249 3.13511 8.96445 3.13384C9.44274 2.8577 10.0541 3.0217 10.3302 3.5ZM8.96418 8.86602C8.96228 8.86478 8.94886 8.85602 8.92356 8.83468C8.89392 8.80968 8.85555 8.77374 8.80877 8.72449C8.71408 8.62478 8.60395 8.49066 8.48172 8.32415C8.23696 7.99074 7.97975 7.57713 7.74046 7.1607C7.6957 7.08279 7.6519 7.00538 7.60928 6.92907C7.69668 6.92782 7.78562 6.92705 7.87547 6.92686C8.35575 6.92587 8.84255 6.94182 9.25368 6.98708C9.45899 7.00968 9.63021 7.03799 9.7639 7.07014C9.82995 7.08603 9.88026 7.10129 9.91673 7.11446C9.94786 7.12571 9.9626 7.1332 9.96469 7.13426C10.443 7.41041 10.6063 8.0217 10.3302 8.5C10.0541 8.97829 9.44247 9.14216 8.96418 8.86602ZM6.00012 7C5.44784 7 5.00012 6.55229 5.00012 6C5.00012 5.44772 5.44784 5 6.00012 5C6.55241 5 7.00012 5.44772 7.00012 6C7.00012 6.55229 6.55241 7 6.00012 7Z" fill="#fcfbf8"/>
</svg>
