<?xml version="1.0" encoding="UTF-8"?>
<!DOCTYPE svg PUBLIC "-//W3C//DTD SVG 1.1//EN" "http://www.w3.org/Graphics/SVG/1.1/DTD/svg11.dtd">
<svg xmlns="http://www.w3.org/2000/svg" version="1.1" width="11880px" height="11880px" style="shape-rendering:geometricPrecision; text-rendering:geometricPrecision; image-rendering:optimizeQuality; fill-rule:evenodd; clip-rule:evenodd" xmlns:xlink="http://www.w3.org/1999/xlink">
<g><path style="opacity:0.954" fill="#000000" d="M 8833.5,3114.5 C 8834.12,3114.61 8834.62,3114.94 8835,3115.5C 8835.17,3121.5 8835.33,3127.5 8835.5,3133.5C 8834.21,3166.87 8832.71,3200.2 8831,3233.5C 8838,3227.83 8844.33,3221.5 8850,3214.5C 8862.75,3195.33 8875.75,3176.33 8889,3157.5C 8894.03,3152.13 8899.37,3147.13 8905,3142.5C 8903.39,3154.59 8900.06,3166.26 8895,3177.5C 8886.85,3194.48 8877.68,3210.81 8867.5,3226.5C 8881.79,3229.14 8896.12,3231.64 8910.5,3234C 8926.63,3236.9 8940.3,3244.23 8951.5,3256C 8943.47,3256.52 8935.47,3256.19 8927.5,3255C 8904.2,3251.72 8880.87,3248.72 8857.5,3246C 8846.52,3244.89 8835.52,3244.56 8824.5,3245C 8834.39,3255.61 8845.73,3264.27 8858.5,3271C 8882.93,3282.22 8907.6,3292.88 8932.5,3303C 8939.17,3306.67 8945.83,3310.33 8952.5,3314C 8953.83,3315 8953.83,3316 8952.5,3317C 8947.17,3320 8941.83,3323 8936.5,3326C 8934.83,3326.67 8933.17,3326.67 8931.5,3326C 8921.77,3322.87 8912.1,3319.53 8902.5,3316C 8869.73,3301.28 8836.73,3287.12 8803.5,3273.5C 8804.37,3224.81 8809.2,3176.47 8818,3128.5C 8823.36,3123.97 8828.53,3119.3 8833.5,3114.5 Z"/></g>
<g><path style="opacity:0.952" fill="#000000" d="M 10123.5,3129.5 C 10124.1,3129.74 10124.4,3130.24 10124.5,3131C 10121,3141.16 10115.8,3150.33 10109,3158.5C 10101.2,3167.3 10093,3175.8 10084.5,3184C 10068.6,3196.58 10054.8,3211.08 10043,3227.5C 10040.5,3230.89 10038.8,3234.56 10038,3238.5C 10069,3227.43 10099.8,3215.93 10130.5,3204C 10145.8,3198.81 10161.4,3196.48 10177.5,3197C 10162.5,3207.52 10146.5,3216.52 10129.5,3224C 10110.6,3232.2 10091.6,3240.2 10072.5,3248C 10090.1,3282.28 10106.1,3317.28 10120.5,3353C 10114.2,3353.67 10107.8,3353.67 10101.5,3353C 10097.9,3348.44 10094.8,3343.6 10092,3338.5C 10082.4,3316.46 10072.1,3294.79 10061,3273.5C 10053.3,3260.5 10043,3250.17 10030,3242.5C 10030.1,3250.18 10030.8,3257.84 10032,3265.5C 10036.2,3291.47 10040.2,3317.47 10044,3343.5C 10045.3,3353.14 10045.6,3362.8 10045,3372.5C 10029.2,3353.74 10019.5,3332.08 10016,3307.5C 10013.1,3288.15 10010.1,3268.82 10007,3249.5C 10005.8,3242 10004,3234.67 10001.5,3227.5C 10026.4,3204.81 10051.4,3182.31 10076.5,3160C 10091.2,3148.32 10106.9,3138.15 10123.5,3129.5 Z"/></g>
<g><path style="opacity:0.926" fill="#000000" d="M 8951.5,3175.5 C 8964.04,3175.91 8968.87,3182.24 8966,3194.5C 8959.63,3203.34 8951.97,3204.67 8943,3198.5C 8936.87,3187.43 8939.71,3179.77 8951.5,3175.5 Z"/></g>
<g><path style="opacity:0.945" fill="#000000" d="M 9690.5,3188.5 C 9692.17,3188.5 9693.83,3188.5 9695.5,3188.5C 9682.76,3217.97 9668.43,3246.64 9652.5,3274.5C 9656.37,3276.6 9660.37,3278.44 9664.5,3280C 9683.91,3286.14 9703.24,3292.47 9722.5,3299C 9741.51,3305.49 9756.85,3316.83 9768.5,3333C 9761.38,3332.14 9754.38,3330.47 9747.5,3328C 9721.31,3317.99 9694.64,3309.49 9667.5,3302.5C 9661.33,3301.46 9655.16,3300.46 9649,3299.5C 9648.5,3299.83 9648,3300.17 9647.5,3300.5C 9651.68,3308.86 9656.84,3316.52 9663,3323.5C 9682.39,3342.22 9701.72,3360.89 9721,3379.5C 9724.36,3384.03 9727.53,3388.7 9730.5,3393.5C 9730.17,3393.83 9729.83,3394.17 9729.5,3394.5C 9705.55,3384.53 9683.88,3371.03 9664.5,3354C 9651.27,3341.44 9638.77,3328.27 9627,3314.5C 9626.72,3295.27 9630.72,3276.94 9639,3259.5C 9649.08,3239.68 9659.41,3220.01 9670,3200.5C 9675.49,3194.01 9682.33,3190.01 9690.5,3188.5 Z"/></g>
<g><path style="opacity:0.95" fill="#000000" d="M 9198.5,3199.5 C 9202.12,3201.02 9204.62,3203.69 9206,3207.5C 9213.29,3221.95 9217.29,3237.28 9218,3253.5C 9218.71,3271.19 9219.71,3288.85 9221,3306.5C 9225.33,3299.17 9229.67,3291.83 9234,3284.5C 9265.68,3284.32 9297.18,3287.15 9328.5,3293C 9336.74,3294.72 9344.74,3297.06 9352.5,3300C 9346.78,3303.91 9340.44,3306.24 9333.5,3307C 9314.72,3308.09 9296.06,3307.09 9277.5,3304C 9259.54,3301.49 9243.54,3305.82 9229.5,3317C 9235.84,3321.5 9242.5,3325.5 9249.5,3329C 9263.75,3335.2 9278.09,3341.2 9292.5,3347C 9307.67,3353.33 9320.84,3362.5 9332,3374.5C 9333.7,3376.7 9335.2,3379.03 9336.5,3381.5C 9322.62,3379.61 9308.95,3376.11 9295.5,3371C 9266.24,3359.8 9237.41,3347.64 9209,3334.5C 9204.35,3307.26 9200.35,3279.93 9197,3252.5C 9196.07,3234.78 9196.57,3217.11 9198.5,3199.5 Z"/></g>
<g><path style="opacity:0.929" fill="#000000" d="M 9271.5,3220.5 C 9284.11,3219.27 9289.94,3224.94 9289,3237.5C 9284.18,3245.42 9277.34,3247.92 9268.5,3245C 9262.33,3241.15 9260.17,3235.65 9262,3228.5C 9264.36,3224.76 9267.53,3222.09 9271.5,3220.5 Z"/></g>
<g><path style="opacity:0.933" fill="#000000" d="M 10262.5,3237.5 C 10272.3,3236.8 10277.6,3241.3 10278.5,3251C 10277.5,3259.43 10272.7,3263.93 10264,3264.5C 10255.8,3263.48 10251.6,3258.81 10251.5,3250.5C 10252.3,3243.7 10256,3239.36 10262.5,3237.5 Z"/></g>
<g><path style="opacity:0.924" fill="#000000" d="M 9754.5,3238.5 C 9765.83,3239.49 9770,3245.49 9767,3256.5C 9760.14,3264.28 9752.81,3264.95 9745,3258.5C 9740.89,3248.38 9744.06,3241.72 9754.5,3238.5 Z"/></g>
<g><path style="opacity:0.979" fill="#000000" d="M 8068.5,3324.5 C 8081.87,3324.18 8094.54,3327.01 8106.5,3333C 8112.74,3336.04 8118.91,3339.21 8125,3342.5C 8149.08,3331.85 8174.25,3327.35 8200.5,3329C 8204.82,3329.25 8208.82,3330.41 8212.5,3332.5C 8206.74,3343.76 8198.41,3352.59 8187.5,3359C 8171.21,3366.49 8154.21,3371.66 8136.5,3374.5C 8136.67,3606.17 8136.5,3837.83 8136,4069.5C 8134.4,4095.52 8132.57,4121.52 8130.5,4147.5C 8130.58,4149.3 8131.08,4150.97 8132,4152.5C 8135,4155.5 8138,4158.5 8141,4161.5C 8142.79,4158.04 8144.12,4154.38 8145,4150.5C 8150.15,4123.89 8157.49,4097.89 8167,4072.5C 8217.27,3926.35 8267.94,3780.35 8319,3634.5C 8339.93,3574.04 8360.26,3513.38 8380,3452.5C 8380.78,3451.06 8380.61,3449.72 8379.5,3448.5C 8363.38,3438.88 8349.21,3426.88 8337,3412.5C 8334.78,3409.22 8332.94,3405.72 8331.5,3402C 8332.49,3388.35 8339.49,3383.35 8352.5,3387C 8355.62,3388.06 8358.62,3389.39 8361.5,3391C 8368.46,3396.29 8375.13,3401.96 8381.5,3408C 8391.52,3414.68 8402.52,3419.01 8414.5,3421C 8429.54,3423.09 8444.54,3425.42 8459.5,3428C 8465.54,3429.29 8471.21,3431.46 8476.5,3434.5C 8471.06,3444.77 8462.72,3451.6 8451.5,3455C 8434.18,3456.63 8417.01,3458.13 8400,3459.5C 8323.56,3676.49 8248.89,3894.16 8176,4112.5C 8170.99,4129.23 8167.65,4146.23 8166,4163.5C 8210.46,4107.91 8253.46,4051.24 8295,3993.5C 8408.48,3849.34 8523.48,3706.34 8640,3564.5C 8640.67,3563.5 8640.67,3562.5 8640,3561.5C 8621.63,3542.23 8612.13,3519.23 8611.5,3492.5C 8620.49,3493.16 8628.49,3496.33 8635.5,3502C 8639.33,3505.83 8643.17,3509.67 8647,3513.5C 8653.45,3522.29 8660.29,3530.79 8667.5,3539C 8689.02,3552.26 8710.02,3566.26 8730.5,3581C 8730.72,3589.51 8726.72,3595.51 8718.5,3599C 8713.18,3600.87 8707.85,3600.87 8702.5,3599C 8687.28,3592.72 8672.61,3585.39 8658.5,3577C 8657.36,3576.25 8656.36,3576.42 8655.5,3577.5C 8584.33,3660.88 8514.83,3745.55 8447,3831.5C 8402.67,3888.17 8358.33,3944.83 8314,4001.5C 8285.67,4040.17 8257.33,4078.83 8229,4117.5C 8216.95,4132.43 8204.79,4147.26 8192.5,4162C 8323.9,4096.8 8455.57,4031.8 8587.5,3967C 8673.47,3925.51 8759.8,3884.85 8846.5,3845C 8847.02,3844.44 8847.36,3843.77 8847.5,3843C 8843.1,3825.75 8840.93,3808.25 8841,3790.5C 8843.56,3779.62 8850.4,3775.46 8861.5,3778C 8863.1,3778.27 8864.6,3778.77 8866,3779.5C 8873.47,3795.78 8881.47,3811.78 8890,3827.5C 8889.5,3831.67 8888.16,3835.67 8886,3839.5C 8885.33,3841.17 8885.33,3842.83 8886,3844.5C 8893.29,3853.46 8900.96,3862.13 8909,3870.5C 8912.39,3874.9 8915.39,3879.56 8918,3884.5C 8921.49,3893.25 8921.32,3901.92 8917.5,3910.5C 8905.98,3913.05 8895.98,3910.22 8887.5,3902C 8876.23,3888.57 8865.56,3874.74 8855.5,3860.5C 8651.42,3957.04 8448.75,4056.54 8247.5,4159C 8235.67,4164.72 8223.67,4170.06 8211.5,4175C 8225.96,4172.14 8240.29,4168.47 8254.5,4164C 8376.64,4128.47 8497.97,4090.47 8618.5,4050C 8613.87,4036.61 8609.54,4023.11 8605.5,4009.5C 8615.15,4008.33 8624.82,4008.17 8634.5,4009C 8638.47,4017.77 8642.8,4026.27 8647.5,4034.5C 8660.63,4029.73 8673.8,4025.07 8687,4020.5C 8687.5,4020.83 8688,4021.17 8688.5,4021.5C 8685.5,4028.01 8681.17,4033.51 8675.5,4038C 8669.16,4042.5 8662.5,4046.5 8655.5,4050C 8670.67,4067 8682,4086.33 8689.5,4108C 8680.57,4109.35 8672.23,4107.68 8664.5,4103C 8652.35,4092.35 8640.35,4081.52 8628.5,4070.5C 8603.08,4077.02 8577.75,4083.85 8552.5,4091C 8487.83,4111 8423.17,4131 8358.5,4151C 8310.96,4163.79 8263.63,4177.29 8216.5,4191.5C 8209.07,4197.82 8210.4,4200.65 8220.5,4200C 8278.79,4203.81 8337.13,4204.47 8395.5,4202C 8568.2,4196.32 8740.87,4189.82 8913.5,4182.5C 8915.96,4182.41 8918.13,4181.74 8920,4180.5C 8922.29,4169.41 8924.95,4158.41 8928,4147.5C 8930.41,4137.17 8935.91,4129 8944.5,4123C 8951.28,4120.86 8957.94,4121.19 8964.5,4124C 8965.03,4136.23 8963.86,4148.39 8961,4160.5C 8958.5,4171.17 8956,4181.83 8953.5,4192.5C 8960.61,4205.05 8965.77,4218.39 8969,4232.5C 8971.86,4246 8970.52,4259 8965,4271.5C 8944.28,4251.59 8928.44,4228.25 8917.5,4201.5C 8790.59,4205.96 8663.59,4209.8 8536.5,4213C 8430.93,4216.5 8325.6,4223.5 8220.5,4234C 8216.75,4234.26 8213.08,4234.93 8209.5,4236C 8208.14,4237.58 8207.47,4239.42 8207.5,4241.5C 8244.35,4246.14 8281.01,4251.97 8317.5,4259C 8417.42,4279.32 8517.42,4298.98 8617.5,4318C 8620.27,4319.47 8622.77,4321.3 8625,4323.5C 8640.67,4307.17 8656.33,4290.83 8672,4274.5C 8670.5,4313.84 8668.67,4353.17 8666.5,4392.5C 8656.67,4395.17 8649.17,4392.17 8644,4383.5C 8641.08,4377.74 8638.75,4371.74 8637,4365.5C 8634.76,4354.54 8631.59,4343.88 8627.5,4333.5C 8592.71,4329.22 8558.04,4324.05 8523.5,4318C 8442.48,4302.77 8361.48,4287.44 8280.5,4272C 8257.32,4267.97 8233.99,4266.63 8210.5,4268C 8257.96,4287.56 8304.29,4309.56 8349.5,4334C 8386.66,4353.75 8423.66,4373.75 8460.5,4394C 8552.71,4440.6 8645.04,4486.94 8737.5,4533C 8764.71,4545.77 8792.05,4558.27 8819.5,4570.5C 8829.25,4557.91 8840.25,4546.41 8852.5,4536C 8861.56,4529.3 8871.56,4524.47 8882.5,4521.5C 8884.39,4533.57 8882.22,4544.91 8876,4555.5C 8867.67,4569.17 8857.17,4581 8844.5,4591C 8851.67,4598.83 8858.83,4606.67 8866,4614.5C 8867.92,4616.69 8869.25,4619.02 8870,4621.5C 8857.98,4617.62 8845.81,4614.29 8833.5,4611.5C 8830.43,4625.87 8824.93,4639.21 8817,4651.5C 8810.88,4658.98 8803.05,4662.81 8793.5,4663C 8788.4,4636.58 8792.4,4611.58 8805.5,4588C 8687.01,4528.92 8568.68,4469.59 8450.5,4410C 8386.19,4377.18 8322.19,4343.84 8258.5,4310C 8245.76,4304.48 8232.76,4299.64 8219.5,4295.5C 8218.3,4295.85 8218.3,4296.35 8219.5,4297C 8348.09,4409.59 8476.09,4522.92 8603.5,4637C 8604.83,4637.67 8606.17,4637.67 8607.5,4637C 8621.02,4631.6 8634.69,4626.6 8648.5,4622C 8654.5,4621.33 8660.5,4621.33 8666.5,4622C 8675.84,4622.97 8678,4627.47 8673,4635.5C 8670.54,4638.96 8667.7,4642.13 8664.5,4645C 8651.66,4651.92 8638.66,4658.59 8625.5,4665C 8636.02,4678.02 8646.36,4691.19 8656.5,4704.5C 8656.17,4704.83 8655.83,4705.17 8655.5,4705.5C 8641.85,4698.42 8628.02,4691.76 8614,4685.5C 8607.25,4690.97 8601.92,4697.64 8598,4705.5C 8595.5,4708 8593,4710.5 8590.5,4713C 8583.21,4715.99 8577.05,4714.49 8572,4708.5C 8571.79,4703.09 8572.46,4697.76 8574,4692.5C 8578.28,4680.67 8581.94,4668.67 8585,4656.5C 8585.72,4650.38 8584.39,4644.71 8581,4639.5C 8491.17,4561 8401.33,4482.5 8311.5,4404C 8271.24,4367.95 8231.07,4331.78 8191,4295.5C 8193.66,4301.15 8196.66,4306.81 8200,4312.5C 8288.59,4453.26 8375.76,4594.93 8461.5,4737.5C 8474.7,4734.12 8488.03,4733.29 8501.5,4735C 8510.08,4737.77 8516.41,4743.11 8520.5,4751C 8506.24,4755.64 8492.08,4760.47 8478,4765.5C 8479.84,4775.2 8482.17,4784.87 8485,4794.5C 8485.67,4796.17 8485.67,4797.83 8485,4799.5C 8477.63,4791.8 8470.63,4783.8 8464,4775.5C 8455.89,4780.61 8448.06,4786.11 8440.5,4792C 8433.8,4796.34 8426.46,4798.84 8418.5,4799.5C 8413.07,4798.81 8410.74,4795.64 8411.5,4790C 8411.66,4785.54 8412.82,4781.38 8415,4777.5C 8418.47,4773.03 8422.3,4768.87 8426.5,4765C 8432.93,4760.58 8438.76,4755.41 8444,4749.5C 8444.67,4748.5 8444.67,4747.5 8444,4746.5C 8380.26,4637.99 8314.26,4530.99 8246,4425.5C 8221.42,4386 8197.08,4346.33 8173,4306.5C 8177.78,4340.4 8184.11,4374.07 8192,4407.5C 8222.02,4535.57 8252.35,4663.57 8283,4791.5C 8284.07,4792.19 8285.23,4792.69 8286.5,4793C 8297.15,4793.98 8307.81,4794.65 8318.5,4795C 8327.93,4796.6 8333.6,4802.1 8335.5,4811.5C 8331.8,4817.52 8326.47,4821.36 8319.5,4823C 8308.51,4823.5 8297.51,4823.67 8286.5,4823.5C 8287.73,4835.83 8288.57,4848.16 8289,4860.5C 8283.83,4850.83 8278.67,4841.17 8273.5,4831.5C 8255.83,4830.83 8238.17,4830.17 8220.5,4829.5C 8226.64,4820.19 8234.31,4812.35 8243.5,4806C 8250.33,4801.42 8257.33,4797.08 8264.5,4793C 8265.08,4792.11 8265.41,4791.11 8265.5,4790C 8234.51,4658.55 8202.34,4527.38 8169,4396.5C 8168.67,4398.17 8168.33,4399.83 8168,4401.5C 8167.06,4485.83 8166.56,4570.16 8166.5,4654.5C 8167.03,4816.5 8167.53,4978.5 8168,5140.5C 8169.88,5178.14 8170.72,5215.81 8170.5,5253.5C 8170.15,5308.5 8169.49,5363.5 8168.5,5418.5C 8169.06,5442.5 8169.56,5466.5 8170,5490.5C 8170.33,5720.83 8170.67,5951.17 8171,6181.5C 8204.91,6117.23 8248.41,6060.06 8301.5,6010C 8338.39,5976.9 8376.39,5945.24 8415.5,5915C 8444.9,5891.27 8472.06,5865.1 8497,5836.5C 8531.68,5795.8 8554.68,5749.13 8566,5696.5C 8568.63,5680.27 8570.29,5663.93 8571,5647.5C 8571.09,5609.48 8571.76,5571.48 8573,5533.5C 8599.42,5598.93 8611.42,5666.93 8609,5737.5C 8604.48,5792.24 8588.82,5843.57 8562,5891.5C 8538.91,5931.6 8511.58,5968.6 8480,6002.5C 8448.93,6035.25 8415.76,6065.42 8380.5,6093C 8317.37,6146.52 8266.54,6209.68 8228,6282.5C 8197.18,6344.3 8178.51,6409.63 8172,6478.5C 8168.49,6514.41 8166.99,6550.41 8167.5,6586.5C 8167.56,6622.85 8168.39,6659.18 8170,6695.5C 8176.35,6710.71 8183.18,6725.71 8190.5,6740.5C 8189.97,6741.19 8189.31,6741.69 8188.5,6742C 8182.18,6742.5 8175.84,6742.67 8169.5,6742.5C 8169.5,6743.5 8169.5,6744.5 8169.5,6745.5C 8131.24,6745.51 8093.08,6745.17 8055,6744.5C 8043.85,6723.2 8033.51,6701.53 8024,6679.5C 8004.72,6633 7985.06,6586.67 7965,6540.5C 7948.37,6503.88 7928.7,6469.22 7906,6436.5C 7883.58,6405.41 7857.08,6378.25 7826.5,6355C 7757.44,6306.81 7682.1,6271.48 7600.5,6249C 7539.84,6232.82 7478.51,6229.49 7416.5,6239C 7395.71,6242.61 7375.38,6247.95 7355.5,6255C 7309.76,6271.23 7266.43,6292.23 7225.5,6318C 7200.2,6335.63 7179.37,6357.46 7163,6383.5C 7151.43,6408.2 7141.43,6433.53 7133,6459.5C 7124.13,6486.44 7115.46,6513.44 7107,6540.5C 7087.37,6608.04 7068.2,6675.7 7049.5,6743.5C 7006.51,6744.5 6963.51,6744.83 6920.5,6744.5C 6973.63,6588.94 7027.46,6433.61 7082,6278.5C 7195.08,5958.94 7308.74,5639.61 7423,5320.5C 7423.27,5317.35 7422.61,5314.35 7421,5311.5C 7411,5289.67 7401.5,5267.67 7392.5,5245.5C 7437.74,5245.17 7482.91,5245.5 7528,5246.5C 7636.08,5495.75 7744.75,5744.75 7854,5993.5C 7932.42,6170.42 8011.42,6347.08 8091,6523.5C 8091.33,5932.83 8091.67,5342.17 8092,4751.5C 8092.74,4625.83 8093.41,4500.16 8094,4374.5C 8076.82,4441.54 8059.49,4508.54 8042,4575.5C 8038.03,4591.7 8034.69,4608.04 8032,4624.5C 8016.34,4678.79 8000.84,4733.12 7985.5,4787.5C 7985.83,4788.17 7986.17,4788.83 7986.5,4789.5C 7996,4792.61 8005,4796.78 8013.5,4802C 8021.82,4808.32 8026.49,4816.65 8027.5,4827C 8011.16,4825.91 7994.82,4824.41 7978.5,4822.5C 7976.92,4834.99 7974.59,4847.32 7971.5,4859.5C 7960.72,4849.07 7956.72,4836.4 7959.5,4821.5C 7944.16,4821.39 7928.82,4820.89 7913.5,4820C 7911.42,4819.81 7909.42,4819.31 7907.5,4818.5C 7914.36,4803.82 7925.69,4794.32 7941.5,4790C 7950.37,4787.83 7959.2,4785.66 7968,4783.5C 7984.4,4726.57 7999.23,4669.23 8012.5,4611.5C 8028.27,4549.77 8043.77,4487.77 8059,4425.5C 8068.16,4391.36 8078.49,4357.69 8090,4324.5C 8073.06,4352.43 8055.73,4380.1 8038,4407.5C 7980.25,4494.01 7922.25,4580.34 7864,4666.5C 7848.29,4691.42 7832.46,4716.25 7816.5,4741C 7831.77,4755.88 7844.1,4772.88 7853.5,4792C 7849.47,4792.33 7845.47,4792 7841.5,4791C 7828.95,4786.59 7816.28,4782.59 7803.5,4779C 7795.4,4777.83 7787.57,4778.66 7780,4781.5C 7780.45,4774.09 7781.61,4766.76 7783.5,4759.5C 7767.69,4754.56 7752.02,4749.23 7736.5,4743.5C 7741.98,4735.92 7749.31,4731.09 7758.5,4729C 7773.47,4727.79 7788.47,4727.12 7803.5,4727C 7843.62,4665.92 7883.12,4604.42 7922,4542.5C 7972.29,4466.76 8021.46,4390.26 8069.5,4313C 8062.99,4313.07 8056.66,4314.23 8050.5,4316.5C 8041.05,4327.45 8031.05,4337.95 8020.5,4348C 7929.89,4426.16 7840.23,4505.49 7751.5,4586C 7728.71,4607.15 7706.21,4628.65 7684,4650.5C 7687.73,4659.96 7692.06,4669.29 7697,4678.5C 7704.1,4692.25 7704.1,4705.91 7697,4719.5C 7696,4720.5 7695,4721.5 7694,4722.5C 7684.4,4708.95 7674.57,4695.62 7664.5,4682.5C 7650.42,4691.96 7636.25,4701.29 7622,4710.5C 7622.09,4707.3 7623.09,4704.3 7625,4701.5C 7633.2,4688.49 7640.7,4675.16 7647.5,4661.5C 7634.23,4657.8 7621.57,4652.63 7609.5,4646C 7599.6,4638.15 7597.94,4628.82 7604.5,4618C 7608.55,4617.48 7612.55,4617.82 7616.5,4619C 7631.75,4623.65 7647.08,4627.98 7662.5,4632C 7667.17,4632.67 7671.83,4632.67 7676.5,4632C 7774.57,4541.26 7873.23,4451.26 7972.5,4362C 7994.83,4341 8017.17,4320 8039.5,4299C 8024.96,4304.53 8010.63,4310.86 7996.5,4318C 7937.52,4347.82 7878.85,4378.16 7820.5,4409C 7729.98,4452.6 7639.98,4497.26 7550.5,4543C 7519.52,4557.99 7488.19,4572.16 7456.5,4585.5C 7456.17,4586.17 7455.83,4586.83 7455.5,4587.5C 7458.83,4600 7462.67,4612.33 7467,4624.5C 7470.86,4635.04 7469.86,4645.04 7464,4654.5C 7460.85,4657.65 7457.18,4659.99 7453,4661.5C 7448,4657.83 7443.67,4653.5 7440,4648.5C 7434.34,4636.36 7429.18,4624.03 7424.5,4611.5C 7410.94,4616.74 7397.44,4622.07 7384,4627.5C 7383.33,4626.83 7383.33,4626.17 7384,4625.5C 7393.98,4614.68 7404.15,4604.02 7414.5,4593.5C 7404.43,4582.27 7394.93,4570.6 7386,4558.5C 7381.29,4550.7 7377.96,4542.37 7376,4533.5C 7375.33,4530.17 7375.33,4526.83 7376,4523.5C 7389.84,4525.34 7402,4530.84 7412.5,4540C 7422.9,4549.73 7432.57,4560.06 7441.5,4571C 7442.83,4571.67 7444.17,4571.67 7445.5,4571C 7510.86,4540.82 7575.86,4509.82 7640.5,4478C 7774.4,4409.55 7908.73,4341.88 8043.5,4275C 8053.91,4268.27 8064.57,4261.94 8075.5,4256C 7926.87,4284.99 7777.87,4312.32 7628.5,4338C 7624.26,4353.87 7619.76,4369.7 7615,4385.5C 7610.77,4393.2 7604.27,4396.53 7595.5,4395.5C 7591.83,4358.84 7588.17,4322.17 7584.5,4285.5C 7591.46,4283.84 7598.46,4282.67 7605.5,4282C 7611.3,4295.09 7617.46,4307.92 7624,4320.5C 7671.95,4313.04 7719.78,4304.87 7767.5,4296C 7848.83,4280 7930.17,4264 8011.5,4248C 8023.58,4245.31 8035.58,4242.31 8047.5,4239C 8053.61,4236.78 8059.28,4233.78 8064.5,4230C 7977.24,4224 7889.91,4219.34 7802.5,4216C 7648.51,4209.88 7494.51,4205.04 7340.5,4201.5C 7335.9,4212.79 7331.4,4224.13 7327,4235.5C 7320.23,4251.94 7308.57,4263.27 7292,4269.5C 7291.05,4269.09 7290.39,4268.43 7290,4267.5C 7288.62,4240.14 7295.12,4214.81 7309.5,4191.5C 7303.43,4177.14 7298.27,4162.47 7294,4147.5C 7291.76,4134.86 7295.76,4124.86 7306,4117.5C 7313.84,4120.75 7319.84,4126.09 7324,4133.5C 7331.32,4148.81 7336.66,4164.81 7340,4181.5C 7527.1,4187.14 7714.27,4192.98 7901.5,4199C 7936.63,4201.52 7971.8,4203.35 8007,4204.5C 8028.05,4205.01 8048.88,4203.18 8069.5,4199C 8070.97,4196.01 8071.97,4192.84 8072.5,4189.5C 8043.74,4187.93 8015.41,4183.1 7987.5,4175C 7875.04,4138.43 7761.88,4104.26 7648,4072.5C 7646.89,4072.59 7645.89,4072.92 7645,4073.5C 7635.4,4089.1 7622.57,4101.27 7606.5,4110C 7601.41,4112.42 7596.07,4113.92 7590.5,4114.5C 7591.43,4089.55 7600.09,4067.72 7616.5,4049C 7604.16,4041.16 7591.49,4033.83 7578.5,4027C 7592.04,4026.59 7605.54,4027.09 7619,4028.5C 7628.55,4021.29 7638.38,4014.46 7648.5,4008C 7654.3,4005.85 7660.3,4005.02 7666.5,4005.5C 7667.5,4010.46 7667.66,4015.46 7667,4020.5C 7664.07,4030.36 7660.57,4040.03 7656.5,4049.5C 7656.71,4050.09 7657.04,4050.59 7657.5,4051C 7692.35,4063.06 7727.35,4074.73 7762.5,4086C 7854.38,4113.96 7946.04,4142.29 8037.5,4171C 7827.88,4060.36 7615.21,3955.86 7399.5,3857.5C 7397.44,3859.27 7395.61,3861.27 7394,3863.5C 7386.04,3877.46 7376.54,3890.29 7365.5,3902C 7357.69,3908.74 7348.69,3912.41 7338.5,3913C 7333.34,3902.97 7333.18,3892.8 7338,3882.5C 7346,3869.17 7354,3855.83 7362,3842.5C 7363.45,3837.6 7365.45,3832.93 7368,3828.5C 7372.03,3815.05 7376.36,3801.72 7381,3788.5C 7387.16,3777.72 7396.33,3774.05 7408.5,3777.5C 7411.86,3784.97 7413.19,3792.81 7412.5,3801C 7412.31,3814.6 7410.31,3827.93 7406.5,3841C 7548.32,3904.07 7688.65,3970.74 7827.5,4041C 7907.24,4082.2 7986.91,4122.7 8066.5,4162.5C 7916.69,3961.64 7759.69,3766.31 7595.5,3576.5C 7586,3581.75 7576.67,3587.25 7567.5,3593C 7557.91,3598.76 7547.58,3601.42 7536.5,3601C 7527.67,3597.52 7523.84,3591.02 7525,3581.5C 7529.53,3576.63 7534.37,3572.13 7539.5,3568C 7553.84,3559.5 7567.84,3550.5 7581.5,3541C 7584.7,3538.13 7587.54,3534.96 7590,3531.5C 7595.64,3519.04 7603.14,3507.87 7612.5,3498C 7619.75,3491.71 7628.08,3487.54 7637.5,3485.5C 7637.37,3492.58 7636.54,3499.58 7635,3506.5C 7630.27,3522.37 7624.93,3538.03 7619,3553.5C 7617.83,3557.67 7616.67,3561.83 7615.5,3566C 7615.86,3567.22 7616.36,3568.39 7617,3569.5C 7716.04,3689.54 7814.71,3809.88 7913,3930.5C 7949.33,3976.83 7985.67,4023.17 8022,4069.5C 8043.56,4097.63 8063.9,4126.63 8083,4156.5C 8084.06,4135.79 8080.73,4115.79 8073,4096.5C 8066.41,4081.74 8060.41,4066.74 8055,4051.5C 7984.67,3853.83 7914.33,3656.17 7844,3458.5C 7821.35,3458.4 7798.85,3456.24 7776.5,3452C 7774.22,3451.77 7772.22,3450.93 7770.5,3449.5C 7778.42,3439.36 7788.42,3431.86 7800.5,3427C 7819.52,3421.08 7838.86,3416.41 7858.5,3413C 7876.72,3402.39 7895.39,3392.55 7914.5,3383.5C 7919.19,3397.45 7916.69,3410.12 7907,3421.5C 7893.8,3433.19 7879.3,3443.02 7863.5,3451C 7889.4,3527.71 7915.9,3604.21 7943,3680.5C 7991.79,3813.53 8039.79,3946.86 8087,4080.5C 8094.5,4101.17 8102.84,4121.51 8112,4141.5C 8113.31,4121.92 8113.98,4102.26 8114,4082.5C 8115.4,3902.83 8115.23,3723.17 8113.5,3543.5C 8114.15,3487.17 8114.48,3430.83 8114.5,3374.5C 8091.12,3365.98 8068.46,3355.82 8046.5,3344C 8050.61,3333.71 8057.95,3327.21 8068.5,3324.5 Z M 7432.5,5407.5 C 7447.9,5412.71 7460.73,5421.71 7471,5434.5C 7481.77,5449.02 7490.77,5464.69 7498,5481.5C 7591.89,5696.5 7686.56,5911.17 7782,6125.5C 7810.57,6190.58 7838.4,6255.58 7865.5,6320.5C 7845.1,6311.47 7825.1,6301.63 7805.5,6291C 7773.67,6272.59 7742,6253.92 7710.5,6235C 7673.37,6213.27 7634.37,6195.61 7593.5,6182C 7564.88,6174.79 7536.21,6167.79 7507.5,6161C 7457.78,6154.34 7408.45,6156.67 7359.5,6168C 7308.42,6180.3 7258.09,6195.14 7208.5,6212.5C 7208.17,6211.83 7207.83,6211.17 7207.5,6210.5C 7236.48,6096.07 7266.98,5982.07 7299,5868.5C 7343.04,5714.67 7387.54,5561.01 7432.5,5407.5 Z"/></g>
<g><path style="opacity:0.932" fill="#000000" d="M 10274.5,3406.5 C 10288.4,3405.59 10293.9,3411.92 10291,3425.5C 10283.5,3433.92 10275.5,3434.58 10267,3427.5C 10262.2,3417.74 10264.7,3410.74 10274.5,3406.5 Z"/></g>
<g><path style="opacity:0.957" fill="#000000" d="M 9055.5,3419.5 C 9060.37,3422.49 9063.87,3426.82 9066,3432.5C 9068.45,3438.63 9070.12,3444.96 9071,3451.5C 9071.67,3461.83 9071.67,3472.17 9071,3482.5C 9068.74,3499.47 9068.24,3516.47 9069.5,3533.5C 9092.83,3531.97 9116.16,3530.47 9139.5,3529C 9156.51,3528.17 9173.51,3528.33 9190.5,3529.5C 9180.43,3538.15 9168.77,3543.65 9155.5,3546C 9146.91,3547.66 9138.24,3548.66 9129.5,3549C 9110.44,3549.06 9091.44,3550.06 9072.5,3552C 9064.59,3561.82 9056.92,3571.82 9049.5,3582C 9092.14,3586.83 9134.81,3591.33 9177.5,3595.5C 9176.83,3602.17 9176.17,3608.83 9175.5,3615.5C 9124.86,3611.14 9074.2,3607.14 9023.5,3603.5C 9005.23,3555.37 8989.57,3506.37 8976.5,3456.5C 8976.83,3456.17 8977.17,3455.83 8977.5,3455.5C 8984.03,3457.79 8990.36,3460.45 8996.5,3463.5C 9008.95,3490.73 9019.45,3518.73 9028,3547.5C 9029.69,3552.74 9031.86,3557.74 9034.5,3562.5C 9044.02,3549.78 9049.52,3535.45 9051,3519.5C 9052.79,3500.68 9052.95,3481.85 9051.5,3463C 9051.86,3448.39 9053.19,3433.89 9055.5,3419.5 Z"/></g>
<g><path style="opacity:0.929" fill="#000000" d="M 9986.5,3445.5 C 9999.67,3444.83 10004.5,3450.83 10001,3463.5C 9995.95,3469.49 9989.79,3470.99 9982.5,3468C 9974.83,3458.81 9976.17,3451.31 9986.5,3445.5 Z"/></g>
<g><path style="opacity:0.946" fill="#000000" d="M 9440.5,3454.5 C 9442.86,3454.34 9445.19,3454.5 9447.5,3455C 9433.87,3483.93 9419.2,3512.26 9403.5,3540C 9407.68,3542.26 9412.02,3544.26 9416.5,3546C 9434.17,3551.67 9451.83,3557.33 9469.5,3563C 9483.39,3567.94 9496.06,3574.94 9507.5,3584C 9511.86,3588.56 9515.86,3593.39 9519.5,3598.5C 9519.17,3598.83 9518.83,3599.17 9518.5,3599.5C 9489.4,3590.3 9460.4,3580.8 9431.5,3571C 9420.63,3567.85 9409.63,3566.35 9398.5,3566.5C 9404.02,3576.21 9410.52,3585.21 9418,3593.5C 9435.3,3609.13 9452.3,3625.13 9469,3641.5C 9473,3646.83 9477,3652.17 9481,3657.5C 9481.59,3658.48 9481.26,3659.15 9480,3659.5C 9453.93,3649.08 9430.77,3634.25 9410.5,3615C 9399.09,3603.98 9388.25,3592.48 9378,3580.5C 9377.78,3560.49 9382.11,3541.49 9391,3523.5C 9400.75,3504.34 9410.75,3485.34 9421,3466.5C 9426.19,3460.1 9432.69,3456.1 9440.5,3454.5 Z"/></g>
<g><path style="opacity:0.922" fill="#000000" d="M 9136.5,3456.5 C 9146.65,3457.09 9150.15,3462.42 9147,3472.5C 9146.73,3474.1 9146.23,3475.6 9145.5,3477C 9128.31,3482.31 9122.31,3476.48 9127.5,3459.5C 9130.5,3458.18 9133.5,3457.18 9136.5,3456.5 Z"/></g>
<g><path style="opacity:0.945" fill="#000000" d="M 9806.5,3494.5 C 9808.29,3494.21 9809.95,3494.55 9811.5,3495.5C 9797.79,3524.03 9783.46,3552.19 9768.5,3580C 9771.69,3582.76 9775.36,3584.76 9779.5,3586C 9797.17,3591.67 9814.83,3597.33 9832.5,3603C 9853.39,3609.43 9870.39,3621.26 9883.5,3638.5C 9883,3638.83 9882.5,3639.17 9882,3639.5C 9854.97,3631.27 9828.14,3622.43 9801.5,3613C 9788.59,3609.07 9775.59,3606.9 9762.5,3606.5C 9767.35,3615.53 9773.18,3623.87 9780,3631.5C 9796.7,3647.87 9813.7,3663.87 9831,3679.5C 9835.67,3685.5 9840.33,3691.5 9845,3697.5C 9845.67,3698.5 9845.67,3699.5 9845,3700.5C 9819.82,3690.5 9797.32,3676.33 9777.5,3658C 9764.94,3646.1 9753.1,3633.6 9742,3620.5C 9741.91,3601.62 9745.91,3583.62 9754,3566.5C 9763.9,3545.69 9774.57,3525.36 9786,3505.5C 9791.57,3499.3 9798.4,3495.63 9806.5,3494.5 Z"/></g>
<g><path style="opacity:0.925" fill="#000000" d="M 9476.5,3501.5 C 9487.93,3502.43 9492.1,3508.43 9489,3519.5C 9483.66,3525.63 9477.16,3527.13 9469.5,3524C 9462.6,3517.02 9462.93,3510.35 9470.5,3504C 9472.61,3503.16 9474.61,3502.32 9476.5,3501.5 Z"/></g>
<g><path style="opacity:0.943" fill="#000000" d="M 9457.5,3740.5 C 9458.5,3740.5 9459.5,3740.5 9460.5,3740.5C 9455.91,3754.36 9450.74,3768.02 9445,3781.5C 9435.3,3802.93 9425.8,3824.43 9416.5,3846C 9425.11,3844.37 9433.11,3841.04 9440.5,3836C 9455.07,3824.44 9468.74,3811.77 9481.5,3798C 9492.98,3787.01 9506.48,3779.51 9522,3775.5C 9522.5,3775.83 9523,3776.17 9523.5,3776.5C 9516.58,3786.01 9509.41,3795.35 9502,3804.5C 9483.82,3823.05 9465.99,3841.88 9448.5,3861C 9440.45,3859.54 9432.45,3857.87 9424.5,3856C 9436.27,3876.76 9448.44,3897.26 9461,3917.5C 9467.62,3929.39 9473.12,3941.73 9477.5,3954.5C 9475.69,3954.51 9474.02,3954.01 9472.5,3953C 9461.46,3946.3 9451.96,3937.8 9444,3927.5C 9431.67,3909.5 9419.33,3891.5 9407,3873.5C 9402.58,3866.66 9399.25,3859.33 9397,3851.5C 9396.21,3845.76 9396.54,3840.1 9398,3834.5C 9402,3827.17 9406,3819.83 9410,3812.5C 9415.61,3797.67 9421.61,3783.01 9428,3768.5C 9434.82,3755.84 9444.65,3746.51 9457.5,3740.5 Z"/></g>
<g><path style="opacity:0.933" fill="#000000" d="M 9822.5,3771.5 C 9835.87,3771.9 9840.7,3778.56 9837,3791.5C 9829.81,3799.65 9822.15,3800.32 9814,3793.5C 9808.82,3782.88 9811.65,3775.55 9822.5,3771.5 Z"/></g>
<g><path style="opacity:0.951" fill="#000000" d="M 9164.5,3784.5 C 9165.38,3784.37 9166.04,3784.7 9166.5,3785.5C 9169.89,3792.16 9171.73,3799.16 9172,3806.5C 9168.39,3815.34 9164.39,3824 9160,3832.5C 9147.63,3854.04 9135.47,3875.71 9123.5,3897.5C 9136.34,3897.39 9148.34,3893.89 9159.5,3887C 9164.83,3883.33 9170.17,3879.67 9175.5,3876C 9192.17,3861.33 9208.83,3846.67 9225.5,3832C 9232,3827.58 9238.67,3823.42 9245.5,3819.5C 9244.75,3831.02 9240.59,3841.36 9233,3850.5C 9217.88,3865.79 9201.38,3879.29 9183.5,3891C 9178.51,3895.63 9173.84,3900.47 9169.5,3905.5C 9190.15,3926.65 9210.99,3947.65 9232,3968.5C 9238.83,3976.67 9245.67,3984.83 9252.5,3993C 9245.58,3992.6 9238.91,3990.94 9232.5,3988C 9224.63,3984.12 9217.3,3979.46 9210.5,3974C 9192.86,3956.69 9175.53,3939.03 9158.5,3921C 9157.27,3920.22 9155.94,3919.72 9154.5,3919.5C 9142.7,3920.3 9131.03,3921.46 9119.5,3923C 9144,3957.5 9168.5,3992 9193,4026.5C 9193.69,4027.33 9193.52,4028 9192.5,4028.5C 9187.5,4031.83 9182.5,4035.17 9177.5,4038.5C 9146.61,3998.44 9116.27,3957.94 9086.5,3917C 9110.35,3871.38 9136.35,3827.21 9164.5,3784.5 Z"/></g>
<g><path style="opacity:0.936" fill="#000000" d="M 9497.5,3820.5 C 9510.92,3819.42 9516.42,3825.42 9514,3838.5C 9509.46,3845.84 9502.96,3848.34 9494.5,3846C 9487.2,3840.49 9485.7,3833.66 9490,3825.5C 9492.43,3823.55 9494.93,3821.88 9497.5,3820.5 Z"/></g>
<g><path style="opacity:0.941" fill="#000000" d="M 9247.5,3898.5 C 9262.88,3898.04 9268.05,3905.04 9263,3919.5C 9258.08,3924.2 9252.24,3925.7 9245.5,3924C 9239.03,3919.87 9236.86,3914.04 9239,3906.5C 9241.07,3902.92 9243.91,3900.26 9247.5,3898.5 Z"/></g>
<g><path style="opacity:0.927" fill="#000000" d="M 9474.5,4032.5 C 9486.72,4033.22 9491.55,4039.55 9489,4051.5C 9483.97,4059.07 9477.13,4061.23 9468.5,4058C 9459.04,4046.67 9461.04,4038.17 9474.5,4032.5 Z"/></g>
<g><path style="opacity:0.925" fill="#000000" d="M 9355.5,4235.5 C 9371.19,4236.87 9375.35,4244.54 9368,4258.5C 9360.63,4265.4 9353.63,4265.07 9347,4257.5C 9342.47,4247.24 9345.31,4239.91 9355.5,4235.5 Z"/></g>
<g><path style="opacity:0.927" fill="#000000" d="M 9187.5,4290.5 C 9197.74,4289.28 9203.41,4293.78 9204.5,4304C 9201.58,4314.97 9194.58,4318.97 9183.5,4316C 9179.03,4313.12 9176.69,4308.96 9176.5,4303.5C 9177.31,4296.7 9180.97,4292.36 9187.5,4290.5 Z"/></g>
<g><path style="opacity:0.992" fill="#000000" d="M 4327.5,5236.5 C 4368.83,5237.03 4410.16,5237.37 4451.5,5237.5C 4449.27,5342.49 4447.77,5447.49 4447,5552.5C 4445.57,5812.83 4445.24,6073.17 4446,6333.5C 4446.31,6376.59 4450.64,6419.25 4459,6461.5C 4468.14,6506.11 4487.14,6545.78 4516,6580.5C 4580.89,6650.38 4660.06,6696.22 4753.5,6718C 4833.05,6736.33 4913.39,6740.66 4994.5,6731C 5094.28,6722.58 5182.61,6686.91 5259.5,6624C 5294.42,6591.37 5318.59,6551.87 5332,6505.5C 5345.9,6455.64 5352.07,6404.8 5350.5,6353C 5349.52,5980.84 5349.19,5608.67 5349.5,5236.5C 5390.5,5236.5 5431.5,5236.5 5472.5,5236.5C 5472.32,5455.33 5472.65,5674.17 5473.5,5893C 5472.82,6114.17 5472.32,6335.33 5472,6556.5C 5409.56,6623.9 5335.39,6674.4 5249.5,6708C 5198.41,6728.27 5145.74,6742.94 5091.5,6752C 5020.8,6758.37 4949.97,6762.21 4879,6763.5C 4814.51,6763.92 4750.68,6757.75 4687.5,6745C 4589.72,6724.37 4505.88,6678.87 4436,6608.5C 4392.49,6559.82 4362.82,6503.49 4347,6439.5C 4335.72,6394.86 4329.38,6349.53 4328,6303.5C 4327.5,5947.83 4327.33,5592.17 4327.5,5236.5 Z"/></g>
<g><path style="opacity:0.99" fill="#000000" d="M 5695.5,5236.5 C 5941.34,5236.14 6187.34,5236.64 6433.5,5238C 6518.89,5242.46 6596.89,5268.46 6667.5,5316C 6742.99,5371.55 6794.49,5444.38 6822,5534.5C 6854.84,5651.05 6844.18,5763.38 6790,5871.5C 6732.85,5974.93 6647.02,6042.43 6532.5,6074C 6487.32,6086.23 6441.32,6092.23 6394.5,6092C 6368.56,6093.81 6344.56,6101.48 6322.5,6115C 6363.17,6153.33 6401.34,6193.83 6437,6236.5C 6459.33,6264.17 6481.67,6291.83 6504,6319.5C 6548.85,6378.53 6594.18,6437.19 6640,6495.5C 6687.11,6554.73 6738.27,6610.57 6793.5,6663C 6821.01,6687.85 6849.67,6711.18 6879.5,6733C 6833.87,6735.91 6788.21,6736.91 6742.5,6736C 6727.9,6735.15 6713.56,6732.82 6699.5,6729C 6650.8,6689.64 6605.97,6646.14 6565,6598.5C 6541.29,6569.79 6517.95,6540.79 6495,6511.5C 6458.42,6462.01 6422.09,6412.34 6386,6362.5C 6345.03,6306.18 6301.03,6252.18 6254,6200.5C 6229.41,6174.91 6203.91,6150.41 6177.5,6127C 6153.21,6108.78 6125.88,6097.78 6095.5,6094C 6083.56,6092.34 6071.56,6091.34 6059.5,6091C 6023.82,6091.31 5988.15,6091.14 5952.5,6090.5C 5952.71,6080.83 5953.04,6071.16 5953.5,6061.5C 6026.17,6061.73 6098.84,6061.89 6171.5,6062C 6218.97,6061.7 6266.3,6059.03 6313.5,6054C 6341.77,6054.82 6369.44,6051.15 6396.5,6043C 6430.39,6031.59 6464.06,6019.59 6497.5,6007C 6546.02,5987.8 6585.86,5957.3 6617,5915.5C 6667.07,5847.29 6693.74,5770.63 6697,5685.5C 6700.68,5591.87 6677.68,5505.54 6628,5426.5C 6587.44,5373.29 6535.94,5334.46 6473.5,5310C 6410.69,5286.11 6345.69,5272.44 6278.5,5269C 6233.18,5267.34 6187.84,5267.18 6142.5,5268.5C 6093.5,5267.71 6044.5,5266.71 5995.5,5265.5C 5953.96,5265.42 5912.63,5268.25 5871.5,5274C 5854.95,5276.54 5838.61,5280.04 5822.5,5284.5C 5820.67,5360.82 5819.5,5437.16 5819,5513.5C 5818.11,5633.16 5817.61,5752.83 5817.5,5872.5C 5818.45,6159.5 5819.12,6446.5 5819.5,6733.5C 5778.18,6734.84 5736.84,6735.84 5695.5,6736.5C 5695.5,6236.5 5695.5,5736.5 5695.5,5236.5 Z"/></g>
<g><path style="opacity:0.99" fill="#000000" d="M 3483.5,5237.5 C 3529.17,5237.5 3574.83,5237.5 3620.5,5237.5C 3672.88,5362.93 3726.38,5487.93 3781,5612.5C 3901.88,5883.6 4022.22,6154.93 4142,6426.5C 4186.18,6528.55 4229.68,6630.88 4272.5,6733.5C 4269.89,6734.32 4267.23,6734.82 4264.5,6735C 4231.66,6735.32 4198.83,6735.82 4166,6736.5C 4159.59,6736.49 4153.26,6736.16 4147,6735.5C 4137.47,6717.78 4128.47,6699.78 4120,6681.5C 4098.39,6630 4076.39,6578.67 4054,6527.5C 4033.27,6481.66 4007.27,6439.32 3976,6400.5C 3947.89,6368.4 3915.39,6341.9 3878.5,6321C 3821.05,6285.61 3759.71,6258.94 3694.5,6241C 3629.81,6223.33 3564.47,6220.33 3498.5,6232C 3445.31,6245.17 3394.64,6264.84 3346.5,6291C 3318.23,6306.06 3293.4,6325.56 3272,6349.5C 3258.04,6366.17 3247.37,6384.83 3240,6405.5C 3226.2,6444.91 3213.2,6484.57 3201,6524.5C 3180.38,6594.32 3160.38,6664.32 3141,6734.5C 3097.91,6735.5 3054.74,6735.83 3011.5,6735.5C 3085.04,6520.38 3159.87,6305.71 3236,6091.5C 3328.67,5830.64 3421.84,5569.98 3515.5,5309.5C 3504.82,5285.48 3494.15,5261.48 3483.5,5237.5 Z M 3956.5,6310.5 C 3939.04,6303.77 3922.04,6295.94 3905.5,6287C 3867,6264.92 3828.67,6242.59 3790.5,6220C 3757.76,6201.13 3723.43,6185.8 3687.5,6174C 3662.61,6168.52 3637.95,6162.19 3613.5,6155C 3566.19,6146.42 3518.85,6146.42 3471.5,6155C 3452.02,6158.7 3432.69,6163.03 3413.5,6168C 3375.21,6178.93 3337.21,6190.76 3299.5,6203.5C 3319.62,6111.3 3343.12,6019.97 3370,5929.5C 3391,5858.5 3412,5787.5 3433,5716.5C 3448.38,5655.66 3464.38,5594.99 3481,5534.5C 3495.9,5482.38 3516.57,5432.71 3543,5385.5C 3595.31,5493.44 3645.97,5602.11 3695,5711.5C 3782.66,5910.98 3869.83,6110.65 3956.5,6310.5 Z"/></g>
<g><path style="opacity:0.981" fill="#000000" d="M 2042.5,7036.5 C 2080.64,7036.29 2118.64,7038.45 2156.5,7043C 2286.78,7074.01 2387.61,7145.84 2459,7258.5C 2495.88,7321.15 2517.55,7388.82 2524,7461.5C 2535.75,7557.06 2524.42,7649.72 2490,7739.5C 2431.28,7875.99 2330.78,7966.15 2188.5,8010C 2163.8,8017.78 2138.46,8021.78 2112.5,8022C 1955.53,8041.02 1823.03,7993.52 1715,7879.5C 1622.33,7776.03 1579.5,7654.36 1586.5,7514.5C 1588.16,7388.95 1629.66,7278.95 1711,7184.5C 1767.16,7124.65 1834.33,7081.82 1912.5,7056C 1955.17,7044.12 1998.51,7037.62 2042.5,7036.5 Z M 2030.5,7054.5 C 2155.37,7051.04 2258.2,7096.37 2339,7190.5C 2380.74,7244.29 2411.74,7303.96 2432,7369.5C 2438.26,7391.8 2442.59,7414.47 2445,7437.5C 2451.01,7491.08 2452.01,7544.74 2448,7598.5C 2437.86,7711.73 2394.86,7810.06 2319,7893.5C 2224.37,7987.48 2111.2,8022.31 1979.5,7998C 1882.11,7972.89 1805.61,7918.73 1750,7835.5C 1674.44,7714.04 1647.11,7582.38 1668,7440.5C 1679.96,7367.28 1704.96,7298.95 1743,7235.5C 1801.9,7143.44 1884.73,7084.94 1991.5,7060C 2004.59,7057.74 2017.59,7055.91 2030.5,7054.5 Z"/></g>
<g><path style="opacity:0.981" fill="#000000" d="M 4685.5,7036.5 C 4869.27,7027.8 5012.1,7099.13 5114,7250.5C 5144.63,7299.12 5165.29,7351.78 5176,7408.5C 5199.14,7519.02 5191.47,7627.35 5153,7733.5C 5103.66,7852.5 5020.16,7938.34 4902.5,7991C 4875.07,8002.81 4846.74,8011.81 4817.5,8018C 4746.2,8028.08 4675.2,8026.41 4604.5,8013C 4559.23,8003.58 4516.9,7986.91 4477.5,7963C 4363,7892.07 4290.5,7790.57 4260,7658.5C 4232.43,7536.05 4243.76,7417.38 4294,7302.5C 4354.87,7174.64 4453.37,7091.14 4589.5,7052C 4621.21,7044.1 4653.21,7038.94 4685.5,7036.5 Z M 4704.5,7054.5 C 4756.24,7052.68 4805.91,7061.85 4853.5,7082C 4923.94,7112.77 4980.77,7159.94 5024,7223.5C 5075.9,7301.88 5104.24,7388.21 5109,7482.5C 5116,7566.19 5106.33,7647.86 5080,7727.5C 5054.56,7798.25 5014.73,7859.41 4960.5,7911C 4862.83,7996.83 4750.49,8024.5 4623.5,7994C 4531.46,7965.6 4459.29,7911.1 4407,7830.5C 4344.88,7728.68 4316.88,7618.01 4323,7498.5C 4327.99,7414.88 4349.65,7335.88 4388,7261.5C 4433.02,7179.48 4498.18,7119.32 4583.5,7081C 4622.37,7064.93 4662.7,7056.1 4704.5,7054.5 Z"/></g>
<g><path style="opacity:0.982" fill="#000000" d="M 6681.5,7036.5 C 6762.63,7032.13 6840.3,7046.3 6914.5,7079C 7029.3,7135.8 7108.13,7224.64 7151,7345.5C 7195.39,7477.94 7192.39,7609.27 7142,7739.5C 7088.12,7868.05 6995.46,7955.38 6864,8001.5C 6741.55,8039.56 6621.72,8032.73 6504.5,7981C 6407.22,7933.72 6335.39,7861.22 6289,7763.5C 6230.87,7633.79 6222.2,7500.79 6263,7364.5C 6309.35,7219.16 6403.51,7118.66 6545.5,7063C 6589.6,7047.15 6634.93,7038.32 6681.5,7036.5 Z M 6684.5,7054.5 C 6833.18,7052.41 6947.02,7113.74 7026,7238.5C 7081.35,7329.57 7107.19,7428.57 7103.5,7535.5C 7104.24,7616.63 7088.41,7694.3 7056,7768.5C 7025.87,7833.63 6982.7,7888.46 6926.5,7933C 6823,8008.36 6710.33,8025.69 6588.5,7985C 6507.39,7952.88 6443.56,7900.05 6397,7826.5C 6321.31,7698.34 6297.64,7561.01 6326,7414.5C 6338.3,7357.28 6358.3,7302.94 6386,7251.5C 6438.88,7161.3 6515.04,7099.8 6614.5,7067C 6637.61,7060.76 6660.94,7056.59 6684.5,7054.5 Z"/></g>
<g><path style="opacity:0.986" fill="#000000" d="M 2697.5,7053.5 C 2855.5,7053.15 3013.5,7053.65 3171.5,7055C 3244.58,7060.3 3306.41,7089.13 3357,7141.5C 3392.98,7183.49 3414.32,7232.16 3421,7287.5C 3430.42,7361.08 3414.42,7428.41 3373,7489.5C 3323.77,7551.88 3259.27,7587.38 3179.5,7596C 3166.52,7597.04 3153.52,7597.7 3140.5,7598C 3139.37,7603.43 3138.37,7608.93 3137.5,7614.5C 3167.32,7638.15 3194.82,7664.49 3220,7693.5C 3230.67,7706.83 3241.33,7720.17 3252,7733.5C 3280.28,7772.12 3308.95,7810.45 3338,7848.5C 3368.95,7887.46 3402.78,7923.96 3439.5,7958C 3457.71,7974.38 3476.04,7990.55 3494.5,8006.5C 3473.06,8006.74 3451.56,8007.41 3430,8008.5C 3413.36,8008.98 3397.19,8006.48 3381.5,8001C 3359.85,7985.03 3339.68,7967.19 3321,7947.5C 3292.11,7916.29 3265.11,7883.62 3240,7849.5C 3204.15,7799.32 3167.15,7749.98 3129,7701.5C 3103.87,7671.37 3076.37,7643.53 3046.5,7618C 3031.84,7607.51 3015.51,7601.18 2997.5,7599C 2986.5,7598.01 2975.5,7597.17 2964.5,7596.5C 2946.19,7597.47 2927.86,7597.81 2909.5,7597.5C 2909.5,7591.17 2909.5,7584.83 2909.5,7578.5C 2962.17,7578.67 3014.83,7578.5 3067.5,7578C 3087.9,7577.62 3108.23,7576.29 3128.5,7574C 3152.77,7563.35 3177.44,7553.69 3202.5,7545C 3229.3,7534.85 3252.47,7519.35 3272,7498.5C 3312.68,7448.47 3333.18,7390.97 3333.5,7326C 3333.51,7264.37 3315.01,7209.2 3278,7160.5C 3262.54,7143.03 3244.7,7128.53 3224.5,7117C 3176.71,7091.63 3125.71,7077.63 3071.5,7075C 3058.35,7074.14 3045.18,7073.64 3032,7073.5C 2969.84,7073.69 2907.67,7073.85 2845.5,7074C 2828.46,7074.77 2811.46,7076.11 2794.5,7078C 2783.23,7083.36 2776.4,7092.2 2774,7104.5C 2772.06,7117.09 2771.06,7129.75 2771,7142.5C 2771.1,7430.83 2771.27,7719.17 2771.5,8007.5C 2746.83,8007.5 2722.17,8007.5 2697.5,8007.5C 2696.97,7689.5 2696.97,7371.5 2697.5,7053.5 Z"/></g>
<g><path style="opacity:0.985" fill="#000000" d="M 3695.5,7053.5 C 3880.83,7053.43 4066.17,7053.77 4251.5,7054.5C 4251.5,7081.83 4251.5,7109.17 4251.5,7136.5C 4198.2,7122.34 4144.87,7108.17 4091.5,7094C 4050.39,7083.91 4008.72,7077.41 3966.5,7074.5C 3949.7,7074.48 3937.87,7082.15 3931,7097.5C 3927.98,7104.9 3925.98,7112.57 3925,7120.5C 3924.5,7415.83 3924.33,7711.17 3924.5,8006.5C 3898.5,8006.52 3872.5,8006.85 3846.5,8007.5C 3846.91,7782.83 3847.08,7558.17 3847,7333.5C 3846.94,7252.48 3845.77,7171.48 3843.5,7090.5C 3826.62,7081.21 3808.62,7075.54 3789.5,7073.5C 3747.85,7079.93 3706.52,7088.1 3665.5,7098C 3616.84,7110.08 3568.51,7123.25 3520.5,7137.5C 3520.5,7109.83 3520.5,7082.17 3520.5,7054.5C 3579,7054.83 3637.34,7054.5 3695.5,7053.5 Z"/></g>
<g><path style="opacity:0.986" fill="#000000" d="M 5418.5,7053.5 C 5504.5,7053.33 5590.5,7053.5 5676.5,7054C 5835.27,7065.09 5955.11,7138.59 6036,7274.5C 6085.57,7364.45 6107.23,7460.78 6101,7563.5C 6093.87,7680.65 6051.87,7782.99 5975,7870.5C 5908.76,7939.72 5828.26,7983.55 5733.5,8002C 5675.45,8007.08 5617.28,8009.58 5559,8009.5C 5490.83,8008.5 5422.67,8007.5 5354.5,8006.5C 5354.81,7689.16 5354.47,7371.83 5353.5,7054.5C 5375.34,7054.83 5397.01,7054.5 5418.5,7053.5 Z M 5551.5,7071.5 C 5614.03,7070.24 5675.36,7078.08 5735.5,7095C 5832.3,7126.12 5905.47,7185.96 5955,7274.5C 5996.69,7353.6 6017.19,7437.94 6016.5,7527.5C 6016.09,7577.47 6010.25,7626.8 5999,7675.5C 5973.85,7778.73 5918.68,7861.56 5833.5,7924C 5781.3,7956.74 5724.63,7978.07 5663.5,7988C 5594.74,7999.58 5526.08,7999.25 5457.5,7987C 5445.59,7980.7 5438.42,7970.87 5436,7957.5C 5434.46,7950.58 5433.46,7943.58 5433,7936.5C 5432.03,7664.49 5432.36,7392.49 5434,7120.5C 5435.23,7103.7 5442.07,7089.7 5454.5,7078.5C 5486.88,7074.72 5519.21,7072.39 5551.5,7071.5 Z"/></g>
<g><path style="opacity:0.986" fill="#000000" d="M 7350.5,7053.5 C 7360.84,7053.33 7371.17,7053.5 7381.5,7054C 7428.79,7122.08 7475.96,7190.25 7523,7258.5C 7674,7473.5 7825,7688.5 7976,7903.5C 7985,7915.02 7996.5,7922.68 8010.5,7926.5C 7991.58,7635.74 7971.25,7345.07 7949.5,7054.5C 7976.84,7054.31 8004.17,7053.98 8031.5,7053.5C 8031.5,7371.5 8031.5,7689.5 8031.5,8007.5C 8005.83,8007.67 7980.16,8007.5 7954.5,8007C 7954,8006.5 7953.5,8006 7953,8005.5C 7762.33,7733.5 7571.67,7461.5 7381,7189.5C 7365.43,7168.59 7349.09,7148.26 7332,7128.5C 7329.11,7160.8 7328.77,7193.14 7331,7225.5C 7334.82,7275.85 7338.82,7326.18 7343,7376.5C 7353.3,7587.01 7366.47,7797.35 7382.5,8007.5C 7354.83,8007.15 7327.17,8006.82 7299.5,8006.5C 7299.5,7689.5 7299.5,7372.5 7299.5,7055.5C 7316.65,7054.89 7333.65,7054.22 7350.5,7053.5 Z"/></g>
<g><path style="opacity:0.986" fill="#000000" d="M 8205.5,7053.5 C 8448.83,7053.5 8692.17,7053.5 8935.5,7053.5C 8934.54,7081.81 8934.21,7110.15 8934.5,7138.5C 8883.72,7122.14 8832.39,7107.64 8780.5,7095C 8737.77,7085.18 8694.61,7078.02 8651,7073.5C 8632.37,7075.46 8620.37,7085.46 8615,7103.5C 8612.44,7111.31 8610.77,7119.31 8610,7127.5C 8609.5,7420.5 8609.33,7713.5 8609.5,8006.5C 8583.84,8007.25 8558.17,8007.91 8532.5,8008.5C 8531.58,7888.34 8530.92,7768.17 8530.5,7648C 8531.45,7476.83 8531.62,7305.67 8531,7134.5C 8530.67,7117.19 8526.01,7101.19 8517,7086.5C 8508.07,7076.41 8496.9,7072.25 8483.5,7074C 8421.87,7081.13 8361.2,7093.13 8301.5,7110C 8269.68,7119.04 8238.01,7128.54 8206.5,7138.5C 8206.24,7110.17 8205.91,7081.83 8205.5,7053.5 Z"/></g>
<g><path style="opacity:0.997" fill="#000000" d="M 9111.5,7053.5 C 9121.5,7053.5 9131.5,7053.5 9141.5,7053.5C 9141.5,7371.5 9141.5,7689.5 9141.5,8007.5C 9115.49,8007.52 9089.49,8007.19 9063.5,8006.5C 9064.33,7689.17 9064.66,7371.83 9064.5,7054.5C 9080.34,7054.83 9096.01,7054.5 9111.5,7053.5 Z"/></g>
<g><path style="opacity:0.985" fill="#000000" d="M 9581.5,7053.5 C 9608.51,7053.17 9635.51,7053.5 9662.5,7054.5C 9748.73,7249.28 9835.23,7443.95 9922,7638.5C 9975.85,7760.88 10029,7883.54 10081.5,8006.5C 10076.2,8006.83 10070.8,8007.17 10065.5,8007.5C 10042.6,8007.24 10019.7,8006.24 9997,8004.5C 9980.17,7967.18 9964.17,7929.51 9949,7891.5C 9934.3,7856.4 9915.3,7824.07 9892,7794.5C 9880.76,7781.26 9868.26,7769.43 9854.5,7759C 9805.4,7725.29 9751.73,7701.62 9693.5,7688C 9642.61,7677.28 9592.94,7681.28 9544.5,7700C 9511.06,7711.71 9481.06,7729.04 9454.5,7752C 9439.98,7766.2 9428.81,7782.7 9421,7801.5C 9400.68,7869.79 9380.51,7938.13 9360.5,8006.5C 9333.18,8006.87 9305.85,8006.87 9278.5,8006.5C 9292.49,7963.37 9306.99,7920.37 9322,7877.5C 9383.14,7705.09 9444.47,7532.76 9506,7360.5C 9536.72,7273.04 9566.89,7185.38 9596.5,7097.5C 9591.09,7082.95 9586.09,7068.28 9581.5,7053.5 Z M 9877.5,7744.5 C 9838.87,7715.83 9797.87,7690.67 9754.5,7669C 9714.29,7649.7 9671.96,7638.03 9627.5,7634C 9600,7631.65 9573,7634.31 9546.5,7642C 9518.53,7651.1 9490.53,7659.77 9462.5,7668C 9478.02,7600.77 9495.18,7533.93 9514,7467.5C 9544.62,7362.33 9575.62,7257.33 9607,7152.5C 9625.04,7165.56 9638.04,7182.56 9646,7203.5C 9664.06,7246.62 9682.39,7289.62 9701,7332.5C 9742.25,7423.25 9782.92,7514.25 9823,7605.5C 9842.65,7651.28 9860.81,7697.61 9877.5,7744.5 Z"/></g>
<g><path style="opacity:0.968" fill="#000000" d="M 1764.5,8450.5 C 1800.64,8448.16 1832.64,8458.33 1860.5,8481C 1890.47,8511.23 1903.64,8547.73 1900,8590.5C 1894.94,8644.85 1866.77,8681.02 1815.5,8699C 1771.36,8711.2 1730.69,8704.2 1693.5,8678C 1659.08,8646.42 1644.58,8607.25 1650,8560.5C 1656.36,8509.48 1683.53,8474.98 1731.5,8457C 1742.47,8453.97 1753.47,8451.8 1764.5,8450.5 Z M 1762.5,8478.5 C 1811.92,8475.27 1846.09,8496.27 1865,8541.5C 1876.09,8576.85 1871.43,8609.85 1851,8640.5C 1828.24,8667.62 1799.07,8679.45 1763.5,8676C 1726.44,8671.26 1700.61,8651.76 1686,8617.5C 1673.33,8581.49 1677.33,8547.49 1698,8515.5C 1714.54,8494.48 1736.04,8482.15 1762.5,8478.5 Z"/></g>
<g><path style="opacity:0.967" fill="#000000" d="M 2436.5,8450.5 C 2470.11,8448.54 2500.45,8457.38 2527.5,8477C 2560.7,8506.95 2575.54,8544.45 2572,8589.5C 2564.17,8656.33 2527,8694.5 2460.5,8704C 2419.13,8708.3 2383.63,8696.13 2354,8667.5C 2327.61,8636.31 2316.94,8600.31 2322,8559.5C 2329.17,8505.67 2358.67,8470.84 2410.5,8455C 2419.24,8453.07 2427.9,8451.57 2436.5,8450.5 Z M 2434.5,8478.5 C 2485.98,8475.13 2520.48,8497.46 2538,8545.5C 2549.29,8586.51 2540.46,8622.34 2511.5,8653C 2482.88,8675.59 2450.88,8681.92 2415.5,8672C 2376.68,8657.17 2355.18,8629 2351,8587.5C 2347.81,8547.01 2362.64,8515.18 2395.5,8492C 2407.76,8484.97 2420.76,8480.47 2434.5,8478.5 Z"/></g>
<g><path style="opacity:0.968" fill="#000000" d="M 3386.5,8450.5 C 3422.64,8448.16 3454.64,8458.33 3482.5,8481C 3512.47,8511.24 3525.64,8547.74 3522,8590.5C 3516.94,8644.85 3488.77,8681.02 3437.5,8699C 3393.36,8711.2 3352.69,8704.2 3315.5,8678C 3281.08,8646.42 3266.58,8607.26 3272,8560.5C 3278.36,8509.48 3305.53,8474.98 3353.5,8457C 3364.47,8453.97 3375.47,8451.8 3386.5,8450.5 Z M 3384.5,8478.5 C 3427.14,8474.9 3459.31,8491.24 3481,8527.5C 3495.17,8558.4 3496.17,8589.73 3484,8621.5C 3463.62,8661.62 3430.79,8679.78 3385.5,8676C 3348.44,8671.26 3322.61,8651.76 3308,8617.5C 3295.33,8581.49 3299.33,8547.49 3320,8515.5C 3336.54,8494.48 3358.04,8482.15 3384.5,8478.5 Z"/></g>
<g><path style="opacity:0.968" fill="#000000" d="M 3990.5,8450.5 C 4032.18,8448 4067.35,8461.66 4096,8491.5C 4122.42,8525.93 4131.42,8564.6 4123,8607.5C 4108.69,8664.81 4072.19,8696.98 4013.5,8704C 3977.3,8707.54 3944.96,8698.2 3916.5,8676C 3884.51,8645.39 3870.68,8607.89 3875,8563.5C 3884.44,8495.9 3922.94,8458.23 3990.5,8450.5 Z M 3988.5,8478.5 C 4034.77,8475.2 4067.94,8494.2 4088,8535.5C 4101.74,8572.11 4098.07,8606.77 4077,8639.5C 4052.04,8669.27 4020.2,8681.1 3981.5,8675C 3937.37,8664.87 3911.87,8637.37 3905,8592.5C 3900.6,8556.68 3911.1,8526.18 3936.5,8501C 3951.65,8488.34 3968.99,8480.84 3988.5,8478.5 Z"/></g>
<g><path style="opacity:0.968" fill="#000000" d="M 4336.5,8450.5 C 4370.01,8448.38 4400.68,8456.54 4428.5,8475C 4430.91,8477.28 4433.41,8479.45 4436,8481.5C 4436.67,8482.5 4436.67,8483.5 4436,8484.5C 4430.73,8491.39 4425.23,8498.06 4419.5,8504.5C 4386.4,8478.51 4349.73,8472.01 4309.5,8485C 4276.17,8499.34 4256.67,8524.51 4251,8560.5C 4245.48,8598.62 4256.65,8630.79 4284.5,8657C 4308.79,8674.59 4335.79,8680.59 4365.5,8675C 4407.8,8663.96 4429.13,8636.46 4429.5,8592.5C 4399.17,8592.5 4368.83,8592.5 4338.5,8592.5C 4338.5,8583.5 4338.5,8574.5 4338.5,8565.5C 4378.5,8565.5 4418.5,8565.5 4458.5,8565.5C 4461.05,8592.81 4457.22,8619.15 4447,8644.5C 4430.9,8677.98 4404.4,8697.48 4367.5,8703C 4328.17,8709 4292.84,8700 4261.5,8676C 4233.44,8649.35 4219.44,8616.52 4219.5,8577.5C 4223.61,8502.73 4262.61,8460.4 4336.5,8450.5 Z"/></g>
<g><path style="opacity:0.962" fill="#000000" d="M 6466.5,8450.5 C 6495.22,8448.85 6521.88,8455.35 6546.5,8470C 6551.77,8473.47 6556.44,8477.64 6560.5,8482.5C 6555.31,8490.23 6549.64,8497.57 6543.5,8504.5C 6506.99,8474.61 6467.66,8470.44 6425.5,8492C 6395.02,8512.28 6379.35,8540.95 6378.5,8578C 6380.93,8626.93 6405.26,8658.93 6451.5,8674C 6486.42,8681.69 6517.25,8673.85 6544,8650.5C 6549.09,8657.68 6554.42,8664.68 6560,8671.5C 6560.67,8672.5 6560.67,8673.5 6560,8674.5C 6537.44,8693.51 6511.27,8703.85 6481.5,8705.5C 6480.83,8706.83 6480.17,8708.17 6479.5,8709.5C 6502.03,8712.88 6510.19,8725.55 6504,8747.5C 6497.37,8760.01 6486.87,8765.68 6472.5,8764.5C 6460.81,8764.89 6450.81,8761.05 6442.5,8753C 6444.62,8748.58 6447.12,8744.42 6450,8740.5C 6460.48,8749.2 6471.98,8751.03 6484.5,8746C 6492.67,8735.7 6490.67,8728.03 6478.5,8723C 6473.67,8722.12 6469.01,8722.62 6464.5,8724.5C 6462.08,8722.09 6460.08,8719.42 6458.5,8716.5C 6459.89,8712.72 6461.56,8709.05 6463.5,8705.5C 6391.63,8693.46 6353.63,8650.96 6349.5,8578C 6350.05,8523.86 6374.38,8484.86 6422.5,8461C 6436.77,8455.26 6451.44,8451.76 6466.5,8450.5 Z"/></g>
<g><path style="opacity:0.968" fill="#000000" d="M 8582.5,8450.5 C 8619.19,8448.12 8651.53,8458.62 8679.5,8482C 8708.55,8511.81 8721.39,8547.65 8718,8589.5C 8714,8636.71 8691.17,8671.21 8649.5,8693C 8613.43,8707.54 8577.09,8708.2 8540.5,8695C 8497.95,8675.46 8473.78,8642.29 8468,8595.5C 8462.39,8549 8476.55,8509.83 8510.5,8478C 8531.86,8461.81 8555.86,8452.65 8582.5,8450.5 Z M 8580.5,8478.5 C 8620.61,8474.89 8651.77,8489.56 8674,8522.5C 8689.38,8550.43 8692.72,8579.76 8684,8610.5C 8666.3,8657.63 8632.13,8679.46 8581.5,8676C 8545.59,8671.75 8520.09,8653.25 8505,8620.5C 8491,8583.55 8494.66,8548.55 8516,8515.5C 8532.54,8494.48 8554.04,8482.15 8580.5,8478.5 Z"/></g>
<g><path style="opacity:0.966" fill="#000000" d="M 9036.5,8450.5 C 9064.17,8449.28 9090.83,8453.78 9116.5,8464C 9122.38,8466.77 9127.72,8470.27 9132.5,8474.5C 9127.53,8482.63 9122.36,8490.63 9117,8498.5C 9086.5,8479.56 9053.67,8474.06 9018.5,8482C 9004.49,8485.02 8994.33,8492.86 8988,8505.5C 8983.67,8520.18 8987.83,8531.68 9000.5,8540C 9006.71,8543.27 9013.05,8546.27 9019.5,8549C 9040.44,8555.82 9061.44,8562.49 9082.5,8569C 9099.73,8574.86 9114.56,8584.36 9127,8597.5C 9139.78,8618.41 9141.78,8640.41 9133,8663.5C 9124.2,8680.99 9110.37,8692.49 9091.5,8698C 9052.22,8708.82 9013.88,8706.16 8976.5,8690C 8972.5,8687.67 8968.5,8685.33 8964.5,8683C 8961.15,8680.99 8958.49,8678.32 8956.5,8675C 8961.54,8667.76 8966.71,8660.6 8972,8653.5C 9001.03,8674.04 9033.2,8681.21 9068.5,8675C 9084.3,8673.16 9096.47,8665.66 9105,8652.5C 9113.19,8630.72 9107.02,8614.55 9086.5,8604C 9082.83,8602.33 9079.17,8600.67 9075.5,8599C 9055.97,8592.27 9036.3,8585.93 9016.5,8580C 8998.04,8574.2 8981.88,8564.7 8968,8551.5C 8955.96,8533.9 8953.29,8514.9 8960,8494.5C 8967.2,8477.63 8979.37,8465.8 8996.5,8459C 9009.61,8454.41 9022.94,8451.58 9036.5,8450.5 Z"/></g>
<g><path style="opacity:0.968" fill="#000000" d="M 9347.5,8450.5 C 9382.73,8448.41 9414.06,8458.24 9441.5,8480C 9473,8510.81 9486.5,8548.31 9482,8592.5C 9476.02,8645.79 9447.85,8681.29 9397.5,8699C 9355.35,8710.65 9316.01,8704.65 9279.5,8681C 9251.27,8658.71 9235.43,8629.54 9232,8593.5C 9227.71,8555.38 9237.38,8521.38 9261,8491.5C 9284.28,8466.11 9313.12,8452.44 9347.5,8450.5 Z M 9345.5,8478.5 C 9386.75,8475.21 9418.25,8490.88 9440,8525.5C 9458.46,8563.18 9457.13,8600.18 9436,8636.5C 9416.41,8663.21 9389.91,8676.55 9356.5,8676.5C 9303.33,8673.49 9271.83,8645.83 9262,8593.5C 9257.34,8556.82 9268.17,8525.65 9294.5,8500C 9309.55,8488.04 9326.55,8480.88 9345.5,8478.5 Z"/></g>
<g><path style="opacity:0.968" fill="#000000" d="M 10033.5,8450.5 C 10079.7,8447.59 10117.2,8463.93 10146,8499.5C 10170,8537.5 10175.6,8578.17 10163,8621.5C 10145.1,8670.9 10109.9,8698.4 10057.5,8704C 10013,8708.3 9975.86,8694.13 9946,8661.5C 9923.28,8631.3 9914.28,8597.3 9919,8559.5C 9926.17,8505.67 9955.67,8470.83 10007.5,8455C 10016.3,8453.15 10024.9,8451.65 10033.5,8450.5 Z M 10031.5,8478.5 C 10071.6,8474.89 10102.8,8489.56 10125,8522.5C 10140.4,8550.43 10143.7,8579.76 10135,8610.5C 10117.3,8657.63 10083.1,8679.46 10032.5,8676C 9995.44,8671.26 9969.61,8651.76 9955,8617.5C 9942.26,8581.45 9946.26,8547.45 9967,8515.5C 9983.54,8494.48 10005,8482.15 10031.5,8478.5 Z"/></g>
<g><path style="opacity:0.971" fill="#000000" d="M 2012.5,8455.5 C 2047.18,8455.12 2081.85,8455.62 2116.5,8457C 2159.29,8461.29 2191.46,8481.79 2213,8518.5C 2225.77,8547.04 2229.11,8576.71 2223,8607.5C 2212.22,8651.61 2185.06,8680.11 2141.5,8693C 2132.96,8695.31 2124.29,8696.98 2115.5,8698C 2081.17,8698.5 2046.83,8698.67 2012.5,8698.5C 2012.5,8617.5 2012.5,8536.5 2012.5,8455.5 Z M 2041.5,8483.5 C 2066.53,8483.07 2091.53,8483.57 2116.5,8485C 2166.98,8495.31 2193.64,8526.14 2196.5,8577.5C 2193.52,8629.32 2166.52,8660.15 2115.5,8670C 2090.87,8671.43 2066.2,8671.93 2041.5,8671.5C 2041.5,8608.83 2041.5,8546.17 2041.5,8483.5 Z"/></g>
<g><path style="opacity:0.955" fill="#000000" d="M 2683.5,8455.5 C 2686.85,8455.33 2690.18,8455.5 2693.5,8456C 2750.64,8516.14 2808.14,8575.97 2866,8635.5C 2866.5,8575.5 2866.67,8515.5 2866.5,8455.5C 2876.5,8455.5 2886.5,8455.5 2896.5,8455.5C 2896.5,8536.5 2896.5,8617.5 2896.5,8698.5C 2892.82,8698.67 2889.15,8698.5 2885.5,8698C 2828.33,8638.17 2771.17,8578.33 2714,8518.5C 2713.5,8578.5 2713.33,8638.5 2713.5,8698.5C 2703.5,8698.5 2693.5,8698.5 2683.5,8698.5C 2683.5,8617.5 2683.5,8536.5 2683.5,8455.5 Z"/></g>
<g><path style="opacity:0.966" fill="#000000" d="M 2996.5,8455.5 C 3062.83,8455.5 3129.17,8455.5 3195.5,8455.5C 3195.5,8464.83 3195.5,8474.17 3195.5,8483.5C 3167.17,8483.5 3138.83,8483.5 3110.5,8483.5C 3110.5,8555.17 3110.5,8626.83 3110.5,8698.5C 3100.83,8698.5 3091.17,8698.5 3081.5,8698.5C 3081.5,8626.83 3081.5,8555.17 3081.5,8483.5C 3053.17,8483.5 3024.83,8483.5 2996.5,8483.5C 2996.5,8474.17 2996.5,8464.83 2996.5,8455.5 Z"/></g>
<g><path style="opacity:0.975" fill="#000000" d="M 3634.5,8455.5 C 3644.17,8455.5 3653.83,8455.5 3663.5,8455.5C 3663.5,8527.5 3663.5,8599.5 3663.5,8671.5C 3710.5,8671.5 3757.5,8671.5 3804.5,8671.5C 3804.5,8680.5 3804.5,8689.5 3804.5,8698.5C 3747.83,8698.5 3691.17,8698.5 3634.5,8698.5C 3634.5,8617.5 3634.5,8536.5 3634.5,8455.5 Z"/></g>
<g><path style="opacity:0.98" fill="#000000" d="M 4570.5,8455.5 C 4580.17,8455.5 4589.83,8455.5 4599.5,8455.5C 4599.5,8536.5 4599.5,8617.5 4599.5,8698.5C 4589.83,8698.5 4580.17,8698.5 4570.5,8698.5C 4570.5,8617.5 4570.5,8536.5 4570.5,8455.5 Z"/></g>
<g><path style="opacity:0.965" fill="#000000" d="M 4813.5,8455.5 C 4816.12,8455.23 4818.62,8455.56 4821,8456.5C 4860.43,8537.2 4900.27,8617.7 4940.5,8698C 4929.17,8698.67 4917.83,8698.67 4906.5,8698C 4899.75,8684.51 4892.75,8671.18 4885.5,8658C 4839.83,8657.33 4794.17,8657.33 4748.5,8658C 4741.71,8671.09 4735.04,8684.26 4728.5,8697.5C 4717.18,8698.67 4705.85,8698.83 4694.5,8698C 4734.04,8617.09 4773.7,8536.26 4813.5,8455.5 Z M 4815.5,8514.5 C 4816.68,8514.28 4817.68,8514.61 4818.5,8515.5C 4835.83,8552.83 4853.17,8590.17 4870.5,8627.5C 4834.84,8628.67 4799.17,8628.83 4763.5,8628C 4780.97,8590.22 4798.31,8552.39 4815.5,8514.5 Z"/></g>
<g><path style="opacity:0.965" fill="#000000" d="M 5238.5,8455.5 C 5241.25,8455.19 5243.91,8455.52 5246.5,8456.5C 5285.89,8536.96 5325.56,8617.29 5365.5,8697.5C 5354.17,8698.83 5342.83,8698.83 5331.5,8697.5C 5325.09,8684.34 5318.42,8671.34 5311.5,8658.5C 5265.5,8657.17 5219.5,8657.17 5173.5,8658.5C 5167.09,8671.66 5160.42,8684.66 5153.5,8697.5C 5142.5,8698.83 5131.5,8698.83 5120.5,8697.5C 5159.84,8616.81 5199.18,8536.14 5238.5,8455.5 Z M 5240.5,8514.5 C 5241.82,8514.33 5242.99,8514.66 5244,8515.5C 5261.39,8553.11 5278.89,8590.61 5296.5,8628C 5260.83,8628.83 5225.16,8628.67 5189.5,8627.5C 5206.79,8589.92 5223.79,8552.25 5240.5,8514.5 Z"/></g>
<g><path style="opacity:0.963" fill="#000000" d="M 5402.5,8455.5 C 5413.52,8455.17 5424.52,8455.5 5435.5,8456.5C 5456.67,8498.83 5477.83,8541.17 5499,8583.5C 5507.18,8603.9 5516.01,8623.9 5525.5,8643.5C 5534.87,8624.1 5543.7,8604.43 5552,8584.5C 5573.11,8541.96 5593.94,8499.29 5614.5,8456.5C 5625.5,8455.17 5636.5,8455.17 5647.5,8456.5C 5608.44,8536.96 5569.11,8617.29 5529.5,8697.5C 5526.5,8698.83 5523.5,8698.83 5520.5,8697.5C 5481.16,8616.81 5441.82,8536.14 5402.5,8455.5 Z"/></g>
<g><path style="opacity:0.965" fill="#000000" d="M 5804.5,8455.5 C 5807.12,8455.23 5809.62,8455.56 5812,8456.5C 5851.5,8536.83 5891,8617.17 5930.5,8697.5C 5919.52,8698.67 5908.52,8698.83 5897.5,8698C 5890.25,8684.82 5883.25,8671.49 5876.5,8658C 5830.83,8657.33 5785.17,8657.33 5739.5,8658C 5732.75,8671.49 5725.75,8684.82 5718.5,8698C 5707.48,8698.83 5696.48,8698.67 5685.5,8697.5C 5725.18,8616.81 5764.85,8536.14 5804.5,8455.5 Z M 5806.5,8514.5 C 5809.43,8515.29 5811.27,8517.29 5812,8520.5C 5828.31,8556.44 5844.81,8592.27 5861.5,8628C 5825.83,8628.67 5790.17,8628.67 5754.5,8628C 5771.98,8590.22 5789.31,8552.38 5806.5,8514.5 Z"/></g>
<g><path style="opacity:0.976" fill="#000000" d="M 6025.5,8455.5 C 6028.52,8455.34 6031.52,8455.5 6034.5,8456C 6092.7,8515.86 6150.53,8576.03 6208,8636.5C 6208.5,8576.17 6208.67,8515.83 6208.5,8455.5C 6218.17,8455.5 6227.83,8455.5 6237.5,8455.5C 6237.5,8536.5 6237.5,8617.5 6237.5,8698.5C 6234.15,8698.67 6230.82,8698.5 6227.5,8698C 6170,8637.83 6112.5,8577.67 6055,8517.5C 6054.5,8577.83 6054.33,8638.17 6054.5,8698.5C 6044.83,8698.5 6035.17,8698.5 6025.5,8698.5C 6025.5,8617.5 6025.5,8536.5 6025.5,8455.5 Z"/></g>
<g><path style="opacity:0.965" fill="#000000" d="M 6750.5,8455.5 C 6753.12,8455.23 6755.62,8455.56 6758,8456.5C 6797.43,8537.2 6837.27,8617.7 6877.5,8698C 6866.17,8698.67 6854.83,8698.67 6843.5,8698C 6836.75,8684.51 6829.75,8671.18 6822.5,8658C 6776.83,8657.33 6731.17,8657.33 6685.5,8658C 6678.75,8671.49 6671.75,8684.82 6664.5,8698C 6653.5,8698.67 6642.5,8698.67 6631.5,8698C 6671.04,8617.09 6710.7,8536.26 6750.5,8455.5 Z M 6752.5,8514.5 C 6753.68,8514.28 6754.68,8514.61 6755.5,8515.5C 6772.83,8552.83 6790.17,8590.17 6807.5,8627.5C 6771.84,8628.67 6736.17,8628.83 6700.5,8628C 6717.97,8590.22 6735.31,8552.39 6752.5,8514.5 Z"/></g>
<g><path style="opacity:0.971" fill="#000000" d="M 6971.5,8455.5 C 7006.18,8455.12 7040.85,8455.62 7075.5,8457C 7145.62,8466.45 7182.29,8506.45 7185.5,8577C 7182.63,8648.54 7145.63,8688.87 7074.5,8698C 7040.17,8698.5 7005.83,8698.67 6971.5,8698.5C 6971.5,8617.5 6971.5,8536.5 6971.5,8455.5 Z M 7000.5,8483.5 C 7025.86,8483.08 7051.2,8483.58 7076.5,8485C 7127.19,8495.18 7153.53,8526.02 7155.5,8577.5C 7155.91,8611.19 7142.24,8637.36 7114.5,8656C 7100.28,8664.39 7084.94,8669.39 7068.5,8671C 7045.84,8671.5 7023.17,8671.67 7000.5,8671.5C 7000.5,8608.83 7000.5,8546.17 7000.5,8483.5 Z"/></g>
<g><path style="opacity:0.965" fill="#000000" d="M 7374.5,8455.5 C 7377.12,8455.23 7379.62,8455.56 7382,8456.5C 7421.98,8536.95 7461.81,8617.45 7501.5,8698C 7490.15,8698.83 7478.82,8698.67 7467.5,8697.5C 7460.58,8684.66 7453.91,8671.66 7447.5,8658.5C 7401.5,8657.17 7355.5,8657.17 7309.5,8658.5C 7302.58,8671.34 7295.91,8684.34 7289.5,8697.5C 7278.18,8698.67 7266.85,8698.83 7255.5,8698C 7295.58,8617.34 7335.25,8536.51 7374.5,8455.5 Z M 7376.5,8514.5 C 7378.91,8514.14 7380.41,8515.14 7381,8517.5C 7397.56,8554.29 7414.39,8590.95 7431.5,8627.5C 7395.84,8628.67 7360.17,8628.83 7324.5,8628C 7342.5,8590.49 7359.84,8552.66 7376.5,8514.5 Z"/></g>
<g><path style="opacity:0.962" fill="#000000" d="M 7726.5,8455.5 C 7786.17,8455.5 7845.83,8455.5 7905.5,8455.5C 7905.5,8464.83 7905.5,8474.17 7905.5,8483.5C 7855.83,8483.5 7806.17,8483.5 7756.5,8483.5C 7756.5,8510.83 7756.5,8538.17 7756.5,8565.5C 7800.17,8565.5 7843.83,8565.5 7887.5,8565.5C 7887.5,8574.5 7887.5,8583.5 7887.5,8592.5C 7843.83,8592.5 7800.17,8592.5 7756.5,8592.5C 7756.5,8618.83 7756.5,8645.17 7756.5,8671.5C 7806.17,8671.5 7855.83,8671.5 7905.5,8671.5C 7905.5,8680.5 7905.5,8689.5 7905.5,8698.5C 7845.83,8698.5 7786.17,8698.5 7726.5,8698.5C 7726.5,8617.5 7726.5,8536.5 7726.5,8455.5 Z"/></g>
<g><path style="opacity:0.973" fill="#000000" d="M 8158.5,8455.5 C 8193.18,8455.12 8227.85,8455.62 8262.5,8457C 8332.13,8467.13 8368.8,8507.3 8372.5,8577.5C 8368.69,8648.15 8331.69,8688.32 8261.5,8698C 8227.17,8698.5 8192.83,8698.67 8158.5,8698.5C 8158.5,8617.5 8158.5,8536.5 8158.5,8455.5 Z M 8187.5,8483.5 C 8212.53,8483.07 8237.53,8483.57 8262.5,8485C 8312.92,8495.25 8339.58,8526.09 8342.5,8577.5C 8341.62,8618.86 8322.28,8647.69 8284.5,8664C 8277.04,8666.78 8269.37,8668.78 8261.5,8670C 8236.87,8671.43 8212.2,8671.93 8187.5,8671.5C 8187.5,8608.83 8187.5,8546.17 8187.5,8483.5 Z"/></g>
<g><path style="opacity:0.973" fill="#000000" d="M 9594.5,8455.5 C 9597.52,8455.34 9600.52,8455.5 9603.5,8456C 9661.7,8515.86 9719.53,8576.03 9777,8636.5C 9777.5,8576.17 9777.67,8515.83 9777.5,8455.5C 9787.17,8455.5 9796.83,8455.5 9806.5,8455.5C 9806.5,8536.5 9806.5,8617.5 9806.5,8698.5C 9803.15,8698.67 9799.82,8698.5 9796.5,8698C 9739,8637.83 9681.5,8577.67 9624,8517.5C 9623.5,8577.83 9623.33,8638.17 9623.5,8698.5C 9613.83,8698.5 9604.17,8698.5 9594.5,8698.5C 9594.5,8617.5 9594.5,8536.5 9594.5,8455.5 Z"/></g>
</svg>
