<?xml version="1.0" encoding="UTF-8"?>
<!DOCTYPE svg PUBLIC "-//W3C//DTD SVG 1.1//EN" "http://www.w3.org/Graphics/SVG/1.1/DTD/svg11.dtd">
<svg xmlns="http://www.w3.org/2000/svg" version="1.1" width="11880px" height="11880px" style="shape-rendering:geometricPrecision; text-rendering:geometricPrecision; image-rendering:optimizeQuality; fill-rule:evenodd; clip-rule:evenodd" xmlns:xlink="http://www.w3.org/1999/xlink">
<g><path style="opacity:0.984" fill="#fefffe" d="M 5880.5,2676.5 C 5886.63,2675.91 5892.46,2676.57 5898,2678.5C 5903.83,2821.49 5909.33,2964.49 5914.5,3107.5C 5899.83,3108.05 5885.16,3108.71 5870.5,3109.5C 5867.25,3109.48 5864.08,3109.15 5861,3108.5C 5855.19,2965.18 5849.69,2821.84 5844.5,2678.5C 5856.67,2678.09 5868.67,2677.42 5880.5,2676.5 Z"/></g>
<g><path style="opacity:0.98" fill="#fefffe" d="M 5670.5,2678.5 C 5673.59,2697.31 5676.26,2716.31 5678.5,2735.5C 5637.53,2733.65 5596.53,2734.49 5555.5,2738C 5549.73,2738.21 5544.06,2739.04 5538.5,2740.5C 5561.26,2871.75 5583.6,3003.09 5605.5,3134.5C 5588.81,3136.95 5572.14,3139.61 5555.5,3142.5C 5554.23,3142.43 5553.06,3142.1 5552,3141.5C 5529.72,3010.84 5507.56,2880.17 5485.5,2749.5C 5440.11,2760.3 5395.78,2774.3 5352.5,2791.5C 5348.57,2774 5344.57,2756.5 5340.5,2739C 5340.75,2737.67 5341.42,2736.67 5342.5,2736C 5399.16,2732.67 5455.16,2724.67 5510.5,2712C 5550.53,2707.05 5590.2,2700.05 5629.5,2691C 5643.52,2687.59 5657.18,2683.42 5670.5,2678.5 Z"/></g>
<g><path style="opacity:0.977" fill="#fefffe" d="M 6226.5,2681.5 C 6243.85,2682.3 6261.18,2683.3 6278.5,2684.5C 6327.7,2832.77 6376.7,2981.1 6425.5,3129.5C 6406.1,3128.55 6386.77,3126.88 6367.5,3124.5C 6351.23,3076.2 6335.07,3027.87 6319,2979.5C 6299.56,2942.47 6268.73,2922.64 6226.5,2920C 6195.76,2918.26 6165.76,2922.09 6136.5,2931.5C 6111.33,2987.83 6086.17,3044.17 6061,3100.5C 6060.59,3100.96 6060.09,3101.29 6059.5,3101.5C 6048.81,3100.47 6038.14,3099.13 6027.5,3097.5C 6094.38,2959.08 6160.71,2820.41 6226.5,2681.5 Z M 6288.5,2890.5 C 6257.89,2881.74 6226.89,2880.24 6195.5,2886C 6182.29,2888.55 6169.29,2891.55 6156.5,2895C 6182.37,2839.42 6208.37,2783.92 6234.5,2728.5C 6253.1,2782.3 6271.1,2836.3 6288.5,2890.5 Z"/></g>
<g><path style="opacity:0.981" fill="#fefffe" d="M 5162.5,2780.5 C 5163.5,2780.47 5164.16,2780.97 5164.5,2782C 5205.8,2915.56 5247.3,3049.06 5289,3182.5C 5290.32,3186.11 5290.99,3189.78 5291,3193.5C 5277.59,3197.86 5264.09,3202.03 5250.5,3206C 5209.46,3209.66 5170.13,3202.99 5132.5,3186C 5092.61,3166.42 5056.27,3141.75 5023.5,3112C 4998.87,3088.71 4975.7,3064.21 4954,3038.5C 4978.04,3117.45 5002.2,3196.45 5026.5,3275.5C 5009.17,3280.5 4991.83,3285.5 4974.5,3290.5C 4932.17,3153.17 4889.83,3015.83 4847.5,2878.5C 4864.84,2873.5 4882.17,2868.5 4899.5,2863.5C 4900.02,2866.57 4900.86,2869.57 4902,2872.5C 4945.26,2955.11 5000.1,3029.28 5066.5,3095C 5093.46,3120.28 5123.46,3141.28 5156.5,3158C 5179.72,3168.72 5204.05,3173.89 5229.5,3173.5C 5190.5,3048.17 5151.5,2922.83 5112.5,2797.5C 5112.71,2796.91 5113.04,2796.41 5113.5,2796C 5130.04,2791.1 5146.37,2785.93 5162.5,2780.5 Z"/></g>
<g><path style="opacity:0.977" fill="#fefffe" d="M 4572.5,3008.5 C 4624.56,3007.9 4670.56,3024.07 4710.5,3057C 4781.99,3119.45 4810.83,3197.95 4797,3292.5C 4787.52,3344.58 4760.68,3384.75 4716.5,3413C 4679.33,3432.34 4640.33,3437.01 4599.5,3427C 4543.26,3411.07 4498.43,3379.24 4465,3331.5C 4423.38,3267.84 4412.38,3199.17 4432,3125.5C 4444.15,3085.72 4467.31,3054.22 4501.5,3031C 4523.52,3017.94 4547.19,3010.44 4572.5,3008.5 Z M 4710.5,3388.5 C 4706.96,3388.62 4703.46,3388.29 4700,3387.5C 4684.28,3394.68 4667.78,3398.68 4650.5,3399.5C 4650.66,3402.19 4650.5,3404.85 4650,3407.5C 4645.25,3404.21 4640.42,3401.04 4635.5,3398C 4608.36,3393.09 4584.36,3381.76 4563.5,3364C 4498.06,3306.07 4466.56,3233.23 4469,3145.5C 4472.16,3114.98 4484.32,3088.82 4505.5,3067C 4511.36,3062.31 4517.36,3057.81 4523.5,3053.5C 4522.5,3051.5 4521.5,3049.5 4520.5,3047.5C 4520.83,3047.17 4521.17,3046.83 4521.5,3046.5C 4524.94,3047.43 4528.44,3048.1 4532,3048.5C 4545.27,3044.58 4558.61,3041.58 4572,3039.5C 4572.33,3040.17 4572.67,3040.83 4573,3041.5C 4573.33,3038.83 4573.67,3036.17 4574,3033.5C 4578.25,3036.71 4582.75,3039.54 4587.5,3042C 4619.26,3048.14 4646.59,3062.48 4669.5,3085C 4730.03,3143.59 4758.2,3215.09 4754,3299.5C 4750.03,3324.42 4740.36,3346.76 4725,3366.5C 4719.33,3371.5 4713.67,3376.5 4708,3381.5C 4708.24,3383.99 4709.07,3386.32 4710.5,3388.5 Z"/></g>
<g><path style="opacity:0.977" fill="#fefffe" d="M 4135.5,3280.5 C 4229.54,3280.8 4298.04,3322.47 4341,3405.5C 4374.19,3476.16 4373.53,3546.5 4339,3616.5C 4327.78,3635.73 4313.62,3652.56 4296.5,3667C 4256.37,3692.81 4217.21,3719.98 4179,3748.5C 4094.71,3631.42 4010.54,3514.25 3926.5,3397C 3956.5,3375.33 3986.5,3353.67 4016.5,3332C 4021.14,3330.68 4025.81,3330.18 4030.5,3330.5C 4028.97,3328.81 4027.64,3326.97 4026.5,3325C 4058.08,3298.53 4094.41,3283.7 4135.5,3280.5 Z M 4117.5,3319.5 C 4163.79,3318.65 4204.46,3333.15 4239.5,3363C 4298.2,3414.93 4324.37,3480.1 4318,3558.5C 4313.77,3593.47 4298.6,3622.63 4272.5,3646C 4251.03,3662.24 4229.03,3677.74 4206.5,3692.5C 4133.63,3591.28 4060.63,3490.12 3987.5,3389C 4011.98,3370.93 4036.98,3353.59 4062.5,3337C 4079.77,3327.41 4098.11,3321.57 4117.5,3319.5 Z"/></g>
<g><path style="opacity:0.98" fill="#fefffe" d="M 7950.5,3536.5 C 8014.24,3534.94 8062.07,3561.61 8094,3616.5C 8118.1,3670.68 8111.77,3721.01 8075,3767.5C 8034.18,3816.5 7983.01,3832.33 7921.5,3815C 7860.74,3791.08 7827.74,3746.58 7822.5,3681.5C 7826.09,3626.47 7851.09,3584.3 7897.5,3555C 7914.07,3545.31 7931.74,3539.14 7950.5,3536.5 Z M 7956.5,3584.5 C 8001.87,3583.09 8034.37,3602.76 8054,3643.5C 8064.52,3673.65 8060.86,3701.98 8043,3728.5C 8019.15,3763.34 7986.32,3777.84 7944.5,3772C 7905.23,3760.73 7881.06,3735.23 7872,3695.5C 7870.13,3651.08 7888.29,3617.58 7926.5,3595C 7936.16,3590.17 7946.16,3586.67 7956.5,3584.5 Z"/></g>
<g><path style="opacity:0.977" fill="#fefffe" d="M 3759.5,3594.5 C 3852.24,3594.61 3923.74,3633.28 3974,3710.5C 4007.47,3765 4016.81,3823.33 4002,3885.5C 3986.02,3936.81 3952.52,3970.98 3901.5,3988C 3810.43,4007.09 3733.26,3982.59 3670,3914.5C 3620.29,3857.03 3601.63,3790.7 3614,3715.5C 3630.33,3650.84 3671.16,3611.67 3736.5,3598C 3744.3,3596.77 3751.97,3595.6 3759.5,3594.5 Z M 3903.5,3960.5 C 3897.96,3959.41 3892.46,3958.07 3887,3956.5C 3856.44,3961.16 3827.27,3956.66 3799.5,3943C 3728.93,3909.43 3680.43,3855.93 3654,3782.5C 3647.18,3758.85 3645.68,3734.85 3649.5,3710.5C 3647.01,3710.7 3644.68,3710.2 3642.5,3709C 3646.3,3706.2 3649.8,3703.04 3653,3699.5C 3658.01,3687.17 3664.67,3675.83 3673,3665.5C 3672.45,3662.91 3670.95,3660.74 3668.5,3659C 3672.79,3658.09 3677.13,3657.42 3681.5,3657C 3691.76,3648.7 3703.09,3642.2 3715.5,3637.5C 3715.68,3634.77 3715.68,3632.1 3715.5,3629.5C 3721.06,3631.31 3726.73,3632.64 3732.5,3633.5C 3756.48,3630.27 3779.81,3632.77 3802.5,3641C 3869.41,3667.24 3919.25,3712.41 3952,3776.5C 3962.38,3796.99 3968.72,3818.65 3971,3841.5C 3972.88,3863.89 3969.05,3885.22 3959.5,3905.5C 3961.5,3906.83 3963.5,3908.17 3965.5,3909.5C 3961.49,3912.51 3957.16,3915.01 3952.5,3917C 3939.27,3933.74 3922.6,3945.58 3902.5,3952.5C 3902.58,3955.21 3902.91,3957.87 3903.5,3960.5 Z"/></g>
<g><path style="opacity:0.979" fill="#fefffe" d="M 8263.5,3765.5 C 8265.37,3765.86 8266.87,3766.86 8268,3768.5C 8289.97,3792.8 8312.3,3816.8 8335,3840.5C 8351.96,3860.07 8363.96,3882.4 8371,3907.5C 8380.37,3954.03 8368.71,3994.36 8336,4028.5C 8286,4077.65 8230.16,4085.48 8168.5,4052C 8152.23,4041.74 8137.73,4029.24 8125,4014.5C 8105.27,3993.36 8085.77,3972.02 8066.5,3950.5C 8131.89,3888.45 8197.55,3826.78 8263.5,3765.5 Z M 8262.5,3832.5 C 8265.06,3833.54 8267.22,3835.21 8269,3837.5C 8277.77,3847.36 8286.77,3857.02 8296,3866.5C 8311.05,3882.26 8320.55,3900.93 8324.5,3922.5C 8327.77,3947.2 8321.6,3969.2 8306,3988.5C 8276.86,4022.99 8241.36,4031.83 8199.5,4015C 8191.83,4010.83 8184.49,4006.17 8177.5,4001C 8161.77,3985.94 8146.77,3970.27 8132.5,3954C 8176.33,3914 8219.67,3873.5 8262.5,3832.5 Z"/></g>
<g><path style="opacity:0.976" fill="#fefffe" d="M 3443.5,3855.5 C 3459.03,3866.77 3474.03,3878.77 3488.5,3891.5C 3454.14,3922.02 3421.98,3954.69 3392,3989.5C 3391.33,3990.17 3391.33,3990.83 3392,3991.5C 3498.9,4070.7 3606.07,4149.53 3713.5,4228C 3703.03,4242.64 3692.36,4257.14 3681.5,4271.5C 3574.17,4192.83 3466.83,4114.17 3359.5,4035.5C 3334.59,4074.6 3312.43,4115.27 3293,4157.5C 3277.51,4147.75 3262.18,4137.75 3247,4127.5C 3284.57,4084.57 3319.24,4039.23 3351,3991.5C 3386.05,3949.08 3416.88,3903.75 3443.5,3855.5 Z"/></g>
<g><path style="opacity:0.962" fill="#fefffe" d="M 6731.5,3993.5 C 6732.94,4000.78 6733.61,4008.28 6733.5,4016C 6731.86,4056.86 6730.03,4097.69 6728,4138.5C 6736.33,4131.5 6744,4123.83 6751,4115.5C 6765.42,4093.66 6780.09,4071.99 6795,4050.5C 6801.67,4042.5 6809,4035.17 6817,4028.5C 6816.8,4035.66 6815.46,4042.66 6813,4049.5C 6802.96,4078.42 6789.13,4105.25 6771.5,4130C 6786.12,4132.61 6800.78,4134.95 6815.5,4137C 6833.43,4139.42 6849.76,4145.75 6864.5,4156C 6867.68,4159.02 6870.68,4162.18 6873.5,4165.5C 6872.67,4165.83 6871.83,4166.17 6871,4166.5C 6833.8,4162.29 6796.64,4157.79 6759.5,4153C 6746.19,4151.66 6732.86,4151.32 6719.5,4152C 6738.46,4170.83 6760.46,4185.16 6785.5,4195C 6812.75,4205.31 6839.41,4216.97 6865.5,4230C 6869.33,4232.34 6872.99,4234.84 6876.5,4237.5C 6869.33,4241.92 6862,4246.09 6854.5,4250C 6853.17,4250.67 6851.83,4250.67 6850.5,4250C 6836.96,4245.9 6823.63,4241.23 6810.5,4236C 6781.17,4223 6751.83,4210 6722.5,4197C 6713.02,4192.92 6703.35,4189.42 6693.5,4186.5C 6696.12,4129.5 6701.95,4072.83 6711,4016.5C 6711.2,4014.74 6711.7,4013.08 6712.5,4011.5C 6718.88,4005.45 6725.21,3999.45 6731.5,3993.5 Z"/></g>
<g><path style="opacity:0.943" fill="#fefffe" d="M 6872.5,4068.5 C 6887.42,4067.59 6893.92,4074.59 6892,4089.5C 6886.69,4098.72 6878.85,4101.89 6868.5,4099C 6859.83,4092.98 6857.66,4085.15 6862,4075.5C 6865,4072.26 6868.5,4069.93 6872.5,4068.5 Z"/></g>
<g><path style="opacity:0.954" fill="#fefffe" d="M 7770.5,4083.5 C 7771.5,4083.5 7772.5,4083.5 7773.5,4083.5C 7770.57,4092.03 7767.07,4100.36 7763,4108.5C 7749.37,4134.96 7735.53,4161.29 7721.5,4187.5C 7727.57,4190.87 7733.9,4193.7 7740.5,4196C 7761.17,4202.67 7781.83,4209.33 7802.5,4216C 7826.65,4223.89 7846.31,4237.89 7861.5,4258C 7855.06,4257.48 7848.73,4256.14 7842.5,4254C 7814.93,4244.38 7787.26,4235.05 7759.5,4226C 7744.78,4221.59 7729.78,4219.25 7714.5,4219C 7724.26,4235.11 7735.93,4249.77 7749.5,4263C 7765.47,4276.58 7780.97,4290.75 7796,4305.5C 7801.91,4312.32 7807.57,4319.32 7813,4326.5C 7814.75,4328.21 7815.42,4330.21 7815,4332.5C 7785.72,4321.18 7759.55,4305.02 7736.5,4284C 7720.27,4268.44 7704.77,4252.27 7690,4235.5C 7690.66,4210.2 7696.66,4186.2 7708,4163.5C 7719.6,4140.91 7731.6,4118.58 7744,4096.5C 7751.4,4089.05 7760.23,4084.72 7770.5,4083.5 Z"/></g>
<g><path style="opacity:0.98" fill="#fefffe" d="M 8471.5,4090.5 C 8520.87,4087.61 8561.04,4105.28 8592,4143.5C 8624.02,4183.58 8632.68,4228.25 8618,4277.5C 8599.07,4322.43 8566.57,4352.93 8520.5,4369C 8450.73,4386.08 8396.89,4364.25 8359,4303.5C 8334.16,4258.65 8333.16,4213.32 8356,4167.5C 8382.74,4124.21 8421.24,4098.55 8471.5,4090.5 Z M 8481.5,4138.5 C 8525.34,4139.84 8555.51,4160.84 8572,4201.5C 8583.64,4241.25 8573.81,4274.75 8542.5,4302C 8519.89,4320.87 8493.89,4328.87 8464.5,4326C 8424.92,4316.42 8399.75,4291.92 8389,4252.5C 8383.05,4214.23 8395.55,4183.4 8426.5,4160C 8443.02,4148 8461.36,4140.83 8481.5,4138.5 Z"/></g>
<g><path style="opacity:0.958" fill="#fefffe" d="M 7173.5,4096.5 C 7182.6,4107.56 7188.76,4120.22 7192,4134.5C 7193.89,4143.75 7195.23,4153.09 7196,4162.5C 7196.59,4183.58 7197.93,4204.58 7200,4225.5C 7205.37,4216.96 7210.53,4208.3 7215.5,4199.5C 7255.14,4199.51 7294.47,4203.35 7333.5,4211C 7342.09,4212.73 7350.42,4215.23 7358.5,4218.5C 7351.2,4223.21 7343.2,4226.05 7334.5,4227C 7323.5,4227.67 7312.5,4227.67 7301.5,4227C 7283.6,4224.1 7265.6,4222.77 7247.5,4223C 7233.1,4224.18 7220.77,4229.68 7210.5,4239.5C 7220.15,4246.33 7230.48,4252.16 7241.5,4257C 7264.94,4265.72 7287.61,4276.06 7309.5,4288C 7321.67,4295.42 7331.67,4305.09 7339.5,4317C 7333.4,4316.91 7327.4,4315.91 7321.5,4314C 7306.97,4309.93 7292.64,4305.27 7278.5,4300C 7247.36,4287.51 7216.53,4274.35 7186,4260.5C 7180.03,4228.33 7175.03,4195.99 7171,4163.5C 7168.51,4141.02 7169.34,4118.68 7173.5,4096.5 Z"/></g>
<g><path style="opacity:0.941" fill="#fefffe" d="M 7260.5,4122.5 C 7277.16,4120.88 7284,4128.21 7281,4144.5C 7274.23,4153.2 7265.73,4155.36 7255.5,4151C 7244.9,4139.26 7246.57,4129.76 7260.5,4122.5 Z"/></g>
<g><path style="opacity:0.931" fill="#fefffe" d="M 7843.5,4144.5 C 7858.69,4144.85 7863.86,4152.18 7859,4166.5C 7853.14,4173.37 7845.97,4175.2 7837.5,4172C 7830.41,4166.41 7828.91,4159.57 7833,4151.5C 7836,4148.26 7839.5,4145.93 7843.5,4144.5 Z"/></g>
<g><path style="opacity:0.976" fill="#fefffe" d="M 5804.5,4248.5 C 5821.81,4247.41 5838.14,4250.91 5853.5,4259C 5860.41,4262.37 5867.24,4265.87 5874,4269.5C 5900.71,4258.22 5928.54,4252.72 5957.5,4253C 5963.91,4253.48 5970.25,4254.48 5976.5,4256C 5978.29,4256.2 5979.62,4257.03 5980.5,4258.5C 5970.52,4276.97 5955.52,4289.47 5935.5,4296C 5920.09,4300.92 5904.59,4305.42 5889,4309.5C 5888.45,4387.5 5887.95,4465.5 5887.5,4543.5C 5888.98,4747.17 5888.82,4950.84 5887,5154.5C 5884.67,5185.82 5883,5217.15 5882,5248.5C 5886.37,5252.53 5890.37,5256.87 5894,5261.5C 5901.64,5226.61 5911.31,5192.27 5923,5158.5C 5949.32,5085.89 5974.65,5012.89 5999,4939.5C 6062.03,4759.75 6123.86,4579.59 6184.5,4399C 6166.91,4388.41 6150.74,4375.91 6136,4361.5C 6130.72,4355.44 6126.89,4348.61 6124.5,4341C 6126.58,4325.25 6135.25,4319.59 6150.5,4324C 6157.33,4326.84 6163.66,4330.5 6169.5,4335C 6183.66,4351.75 6201.66,4361.75 6223.5,4365C 6242.24,4367.53 6260.91,4370.53 6279.5,4374C 6286.36,4375.45 6292.7,4377.95 6298.5,4381.5C 6290.17,4397.63 6276.84,4406.46 6258.5,4408C 6251.5,4408.5 6244.5,4409 6237.5,4409.5C 6228.84,4408.58 6220.18,4408.41 6211.5,4409C 6209.6,4409.2 6208.1,4410.03 6207,4411.5C 6176.94,4495.68 6147.27,4580.02 6118,4664.5C 6057.47,4841.76 5997.14,5019.09 5937,5196.5C 5930.59,5217.81 5926.25,5239.48 5924,5261.5C 5939.81,5243.2 5955.14,5224.53 5970,5205.5C 6006.33,5156.5 6042.67,5107.5 6079,5058.5C 6108.67,5020.5 6138.33,4982.5 6168,4944.5C 6277.79,4808.38 6387.95,4672.54 6498.5,4537C 6481.13,4518.76 6469.63,4497.26 6464,4472.5C 6462.8,4465.2 6462.46,4457.86 6463,4450.5C 6478.12,4453.06 6490.79,4460.06 6501,4471.5C 6510.79,4484.29 6520.95,4496.79 6531.5,4509C 6547,4518.92 6562.67,4528.58 6578.5,4538C 6587.11,4543.61 6595.45,4549.61 6603.5,4556C 6605.23,4557.39 6606.56,4559.06 6607.5,4561C 6602.02,4576.91 6591.02,4583.24 6574.5,4580C 6570.36,4579.07 6566.36,4577.73 6562.5,4576C 6547.78,4567.64 6532.78,4559.81 6517.5,4552.5C 6515.18,4554.32 6513.02,4556.32 6511,4558.5C 6370.16,4726.24 6233.16,4896.91 6100,5070.5C 6066.24,5117.01 6032.24,5163.34 5998,5209.5C 5984.21,5226.96 5970.04,5244.12 5955.5,5261C 6114.93,5182.12 6274.6,5103.45 6434.5,5025C 6538.02,4974.91 6642.02,4925.91 6746.5,4878C 6747.08,4877.11 6747.41,4876.11 6747.5,4875C 6743.69,4857.33 6741.03,4839.49 6739.5,4821.5C 6738.77,4799.02 6749.11,4791.36 6770.5,4798.5C 6779.77,4818.88 6789.44,4839.05 6799.5,4859C 6797.58,4864.34 6795.24,4869.51 6792.5,4874.5C 6802.81,4886.65 6813.31,4898.65 6824,4910.5C 6829.31,4917.44 6833.31,4925.11 6836,4933.5C 6836.67,4938.17 6836.67,4942.83 6836,4947.5C 6835.46,4951.45 6833.96,4954.95 6831.5,4958C 6820.52,4959.01 6810.52,4956.34 6801.5,4950C 6796,4945.83 6791.17,4941 6787,4935.5C 6778.11,4922.22 6768.61,4909.39 6758.5,4897C 6538.59,4998.95 6320.59,5105.29 6104.5,5216C 6070.04,5232.73 6035.71,5249.73 6001.5,5267C 5993.92,5270.53 5986.25,5273.86 5978.5,5277C 5981.21,5277.33 5983.87,5276.99 5986.5,5276C 6148.19,5229.74 6308.86,5180.08 6468.5,5127C 6469.43,5126.61 6470.09,5125.95 6470.5,5125C 6465.65,5108.92 6460.65,5092.92 6455.5,5077C 6456.17,5076.67 6456.83,5076.33 6457.5,5076C 6468.5,5075.33 6479.5,5075.33 6490.5,5076C 6495.54,5086.58 6500.71,5097.08 6506,5107.5C 6521.96,5101.01 6538.12,5095.01 6554.5,5089.5C 6554.83,5089.83 6555.17,5090.17 6555.5,5090.5C 6552.17,5097.65 6547.5,5103.82 6541.5,5109C 6533.36,5115.13 6524.7,5120.46 6515.5,5125C 6533.67,5145.83 6547.33,5169.33 6556.5,5195.5C 6542.47,5196.99 6530.14,5193.16 6519.5,5184C 6507.94,5171.77 6495.77,5160.27 6483,5149.5C 6446.37,5159.12 6409.87,5169.28 6373.5,5180C 6294.89,5204.54 6216.23,5228.87 6137.5,5253C 6085.28,5266.63 6033.45,5281.46 5982,5297.5C 5980.83,5299.83 5979.67,5302.17 5978.5,5304.5C 5978.71,5305.09 5979.04,5305.59 5979.5,5306C 5999.11,5308.2 6018.77,5309.54 6038.5,5310C 6097.84,5310.77 6157.17,5310.44 6216.5,5309C 6422.84,5301.47 6629.17,5293.97 6835.5,5286.5C 6838.54,5265.66 6844.38,5245.66 6853,5226.5C 6861.75,5212.12 6873.91,5208.45 6889.5,5215.5C 6890.18,5224.85 6889.68,5234.18 6888,5243.5C 6884.88,5261.48 6881.05,5279.32 6876.5,5297C 6880.19,5305.55 6884.02,5314.05 6888,5322.5C 6897.04,5343.98 6898.71,5365.98 6893,5388.5C 6892.64,5390.42 6891.81,5392.09 6890.5,5393.5C 6864.99,5369.51 6845.65,5341.17 6832.5,5308.5C 6694.65,5313.97 6556.65,5318.14 6418.5,5321C 6283.57,5324.59 6148.9,5332.59 6014.5,5345C 6001.73,5346.01 5989.06,5347.68 5976.5,5350C 5975.69,5352.09 5974.69,5354.09 5973.5,5356C 6014.22,5362.1 6054.89,5368.77 6095.5,5376C 6179.25,5392.28 6262.91,5408.95 6346.5,5426C 6382.47,5432.55 6418.47,5438.88 6454.5,5445C 6463.52,5446.28 6471.52,5449.78 6478.5,5455.5C 6497.5,5436.17 6516.5,5416.83 6535.5,5397.5C 6535.83,5399.67 6536.17,5401.83 6536.5,5404C 6533.61,5449.14 6531.28,5494.31 6529.5,5539.5C 6518.42,5542.75 6509.59,5539.75 6503,5530.5C 6499.02,5523.57 6496.02,5516.24 6494,5508.5C 6490.94,5494.59 6487.11,5480.93 6482.5,5467.5C 6439.3,5462.78 6396.3,5456.61 6353.5,5449C 6257.16,5430.67 6160.83,5412.33 6064.5,5394C 6035.95,5388.85 6007.28,5387.18 5978.5,5389C 6035.99,5413.58 6092.32,5440.58 6147.5,5470C 6195.5,5496 6243.5,5522 6291.5,5548C 6390.62,5597.4 6489.62,5647.06 6588.5,5697C 6630.05,5717.19 6671.88,5736.69 6714,5755.5C 6725.76,5740.4 6738.93,5726.57 6753.5,5714C 6765.02,5704.91 6778.02,5699.08 6792.5,5696.5C 6792.63,5710.31 6789.46,5723.31 6783,5735.5C 6772.53,5752.14 6759.7,5766.81 6744.5,5779.5C 6754.61,5791.78 6765.28,5803.61 6776.5,5815C 6761.66,5812.11 6747,5808.28 6732.5,5803.5C 6728.97,5814.26 6725.14,5824.93 6721,5835.5C 6715.47,5850.36 6705.31,5860.53 6690.5,5866C 6687.87,5866.99 6685.21,5867.33 6682.5,5867C 6676.77,5835.31 6681.43,5805.14 6696.5,5776.5C 6553.36,5704.09 6410.02,5631.93 6266.5,5560C 6203.87,5528.35 6141.87,5495.69 6080.5,5462C 6057.22,5449.36 6033.22,5438.36 6008.5,5429C 6001.31,5426.15 5993.97,5424.15 5986.5,5423C 6143.35,5559.18 6299.02,5696.85 6453.5,5836C 6457.96,5835.85 6462.29,5834.85 6466.5,5833C 6480.55,5825.97 6495.22,5820.64 6510.5,5817C 6520.7,5815.33 6530.37,5816.83 6539.5,5821.5C 6540.09,5826.13 6538.92,5830.47 6536,5834.5C 6528.86,5843.97 6519.69,5850.8 6508.5,5855C 6500.05,5858.39 6491.72,5862.06 6483.5,5866C 6482.27,5866.78 6481.27,5867.78 6480.5,5869C 6492.29,5884.96 6504.29,5900.8 6516.5,5916.5C 6516.17,5916.83 6515.83,5917.17 6515.5,5917.5C 6498.62,5909.23 6481.62,5901.23 6464.5,5893.5C 6462.85,5894.65 6461.35,5895.98 6460,5897.5C 6453.93,5907.81 6446.76,5917.31 6438.5,5926C 6429.52,5930.35 6421.68,5928.85 6415,5921.5C 6414.85,5914.04 6415.85,5906.71 6418,5899.5C 6422.4,5887.63 6426.4,5875.63 6430,5863.5C 6431.6,5854.65 6430.26,5846.31 6426,5838.5C 6318.46,5743.96 6210.63,5649.79 6102.5,5556C 6052.37,5511.54 6002.53,5466.7 5953,5421.5C 5959,5432.48 5965.34,5443.48 5972,5454.5C 6076.26,5620.93 6179.09,5788.26 6280.5,5956.5C 6296.69,5952.53 6313.02,5951.69 6329.5,5954C 6340.26,5957.26 6347.59,5964.09 6351.5,5974.5C 6334.46,5979.34 6317.46,5984.34 6300.5,5989.5C 6304,6003.48 6307.16,6017.48 6310,6031.5C 6300.96,6022.13 6292.3,6012.46 6284,6002.5C 6275.22,6008.28 6266.72,6014.45 6258.5,6021C 6248.33,6028.37 6237,6031.71 6224.5,6031C 6223.57,6030.61 6222.91,6029.95 6222.5,6029C 6220.39,6020.34 6221.56,6012.18 6226,6004.5C 6230.47,5999.03 6235.3,5993.87 6240.5,5989C 6247.93,5983.57 6254.76,5977.41 6261,5970.5C 6261.67,5969.5 6261.67,5968.5 6261,5967.5C 6230.75,5915.34 6199.75,5863.67 6168,5812.5C 6088.33,5687.17 6009.67,5561.17 5932,5434.5C 5937.73,5475.48 5945.39,5516.14 5955,5556.5C 5991.41,5711.89 6028.08,5867.23 6065,6022.5C 6069.67,6024.02 6074.5,6024.85 6079.5,6025C 6088.17,6025.33 6096.83,6025.67 6105.5,6026C 6117.93,6027.36 6125.6,6034.02 6128.5,6046C 6124.78,6053.54 6118.78,6058.2 6110.5,6060C 6106.19,6060.73 6101.86,6061.23 6097.5,6061.5C 6088.18,6060.68 6078.85,6060.35 6069.5,6060.5C 6070.76,6075.53 6071.93,6090.53 6073,6105.5C 6066.58,6093.66 6060.41,6081.66 6054.5,6069.5C 6032.85,6070 6011.18,6069.5 5989.5,6068C 5994.43,6061.07 6000.09,6054.74 6006.5,6049C 6018.85,6039.5 6031.51,6030.5 6044.5,6022C 6007.37,5861.68 5968.2,5701.84 5927,5542.5C 5925.11,5646.15 5924.28,5749.82 5924.5,5853.5C 5925.07,6053.17 5925.91,6252.83 5927,6452.5C 5928.57,6491.15 5929.41,6529.82 5929.5,6568.5C 5927.01,6688.34 5927.01,6808.17 5929.5,6928C 5928.96,7186.83 5928.79,7445.67 5929,7704.5C 5968.73,7629.41 6019.23,7562.24 6080.5,7503C 6101.87,7483.3 6123.54,7463.96 6145.5,7445C 6190.33,7410.17 6234,7373.84 6276.5,7336C 6313.69,7301.17 6345.19,7262 6371,7218.5C 6398.98,7168.88 6413.32,7115.54 6414,7058.5C 6414.33,7021.17 6414.67,6983.83 6415,6946.5C 6415.17,6937.48 6415.67,6928.48 6416.5,6919.5C 6443.79,6989.43 6458.45,7061.93 6460.5,7137C 6459.56,7211.81 6441.06,7281.98 6405,7347.5C 6372.38,7405.04 6332.71,7457.37 6286,7504.5C 6271.17,7518.67 6256.33,7532.83 6241.5,7547C 6213.83,7570.67 6186.17,7594.33 6158.5,7618C 6097.2,7674.52 6046.37,7739.02 6006,7811.5C 5966.67,7885.82 5942.33,7964.82 5933,8048.5C 5927.4,8097 5924.9,8145.67 5925.5,8194.5C 5925.56,8238.53 5926.72,8282.53 5929,8326.5C 5937.46,8344.41 5945.63,8362.41 5953.5,8380.5C 5945.17,8380.5 5936.83,8380.5 5928.5,8380.5C 5928.67,8381.82 5928.34,8382.99 5927.5,8384C 5896.46,8384.83 5865.46,8384.66 5834.5,8383.5C 5833.33,7628.83 5833.17,6874.17 5834,6119.5C 5834.92,5918.5 5835.92,5717.5 5837,5516.5C 5817.63,5594 5797.63,5671.33 5777,5748.5C 5771.85,5770.1 5767.01,5791.76 5762.5,5813.5C 5762.68,5814.55 5763.01,5815.55 5763.5,5816.5C 5742.74,5884.1 5723.41,5952.1 5705.5,6020.5C 5718.84,6023.84 5731.17,6029.34 5742.5,6037C 5750.48,6044.46 5755.14,6053.62 5756.5,6064.5C 5755.5,6064.83 5754.5,6065.17 5753.5,6065.5C 5734.56,6062.91 5715.56,6060.91 5696.5,6059.5C 5695.29,6074.79 5692.79,6089.79 5689,6104.5C 5676.04,6091.78 5671.21,6076.45 5674.5,6058.5C 5653.49,6058.15 5632.49,6057.49 5611.5,6056.5C 5615.66,6044.17 5623.33,6034.67 5634.5,6028C 5639.6,6025.12 5644.93,6022.78 5650.5,6021C 5662.06,6018.16 5673.56,6015.32 5685,6012.5C 5704.63,5943.8 5722.47,5874.63 5738.5,5805C 5757.68,5730.12 5776.51,5654.95 5795,5579.5C 5806.76,5536.21 5820.1,5493.55 5835,5451.5C 5813.5,5487.17 5791.5,5522.5 5769,5557.5C 5698,5663.17 5627,5768.83 5556,5874.5C 5537.46,5903.08 5519.29,5931.91 5501.5,5961C 5516.4,5976.3 5529.23,5993.14 5540,6011.5C 5542.07,6014.97 5543.57,6018.64 5544.5,6022.5C 5538.72,6022.51 5533.05,6021.68 5527.5,6020C 5512.53,6014.12 5497.19,6009.45 5481.5,6006C 5473.2,6005.11 5465.2,6006.27 5457.5,6009.5C 5457.46,6000.53 5458.79,5991.69 5461.5,5983C 5443.12,5977.15 5424.79,5971.15 5406.5,5965C 5406.04,5964.59 5405.71,5964.09 5405.5,5963.5C 5413.72,5951.88 5425.06,5945.72 5439.5,5945C 5455.17,5944.67 5470.83,5944.33 5486.5,5944C 5535.37,5868.42 5583.87,5792.59 5632,5716.5C 5676.41,5650.01 5720.08,5583.01 5763,5515.5C 5777.75,5491.67 5792.25,5467.67 5806.5,5443.5C 5799.41,5443.42 5792.41,5444.58 5785.5,5447C 5771.86,5461.64 5757.86,5475.97 5743.5,5490C 5628,5589.12 5514,5690.12 5401.5,5793C 5381.33,5812.5 5361.17,5832 5341,5851.5C 5345.12,5862.74 5350.12,5873.74 5356,5884.5C 5362.2,5896.91 5364.2,5909.91 5362,5923.5C 5360.11,5928.94 5357.45,5933.94 5354,5938.5C 5341.61,5922.45 5329.61,5906.11 5318,5889.5C 5300.92,5900.96 5283.75,5912.29 5266.5,5923.5C 5266.17,5923.17 5265.83,5922.83 5265.5,5922.5C 5275.53,5903.59 5286.2,5885.09 5297.5,5867C 5283.87,5861.34 5270.2,5855.68 5256.5,5850C 5240.28,5841.39 5236.28,5828.89 5244.5,5812.5C 5250.18,5811.89 5255.85,5812.39 5261.5,5814C 5277.5,5818.67 5293.5,5823.33 5309.5,5828C 5316.45,5829.48 5323.45,5830.14 5330.5,5830C 5439.9,5729.26 5549.9,5629.26 5660.5,5530C 5698.17,5495 5735.83,5460 5773.5,5425C 5752.71,5433.72 5732.04,5443.06 5711.5,5453C 5647.36,5485.23 5583.7,5518.23 5520.5,5552C 5475.66,5575.09 5430.32,5597.09 5384.5,5618C 5314.99,5653.26 5245.32,5688.26 5175.5,5723C 5138.53,5740.32 5101.53,5757.32 5064.5,5774C 5068.39,5788.68 5072.89,5803.18 5078,5817.5C 5082.46,5829.75 5082.13,5841.75 5077,5853.5C 5073.41,5858.08 5068.91,5861.58 5063.5,5864C 5061.21,5864.42 5059.21,5863.75 5057.5,5862C 5052.59,5857.76 5048.42,5852.92 5045,5847.5C 5038.35,5833.23 5032.69,5818.56 5028,5803.5C 5011.55,5810.99 4994.72,5817.15 4977.5,5822C 4989.98,5808.68 5002.65,5795.51 5015.5,5782.5C 5007.48,5773.65 4999.65,5764.65 4992,5755.5C 4977.82,5739.14 4969.66,5720.14 4967.5,5698.5C 4981.94,5699.48 4994.94,5704.31 5006.5,5713C 5022.01,5726.52 5036.18,5741.35 5049,5757.5C 5109.33,5729.42 5169.5,5700.92 5229.5,5672C 5419.66,5576.75 5609.33,5480.75 5798.5,5384C 5803.83,5380.67 5809.17,5377.33 5814.5,5374C 5710.89,5393.65 5607.23,5413.32 5503.5,5433C 5426.9,5446.95 5350.24,5460.45 5273.5,5473.5C 5272.04,5476.38 5270.87,5479.38 5270,5482.5C 5267.33,5494.5 5264.67,5506.5 5262,5518.5C 5260.29,5528.1 5255.46,5535.6 5247.5,5541C 5242.93,5542.31 5238.27,5542.81 5233.5,5542.5C 5230.11,5498.41 5225.77,5454.41 5220.5,5410.5C 5228.86,5409.33 5237.02,5407.33 5245,5404.5C 5252.75,5419.06 5259.75,5434.06 5266,5449.5C 5266.35,5451.18 5267.35,5452.18 5269,5452.5C 5331.65,5442.59 5394.15,5431.75 5456.5,5420C 5550.86,5401.46 5645.19,5382.79 5739.5,5364C 5754.39,5361.22 5769.06,5357.55 5783.5,5353C 5789.99,5350.5 5795.99,5347.17 5801.5,5343C 5705.94,5336.09 5610.27,5330.76 5514.5,5327C 5319.35,5319.61 5124.18,5312.77 4929,5306.5C 4927.34,5306.68 4926.01,5307.34 4925,5308.5C 4918.77,5329.28 4910.11,5348.95 4899,5367.5C 4890.49,5379.18 4879.32,5387.18 4865.5,5391.5C 4862.64,5367.67 4865.81,5344.67 4875,5322.5C 4878.8,5313.74 4882.96,5305.24 4887.5,5297C 4881.24,5279.98 4875.41,5262.82 4870,5245.5C 4866.67,5229.65 4871.17,5216.65 4883.5,5206.5C 4897.79,5214.3 4907.62,5225.97 4913,5241.5C 4917.64,5256.39 4921.8,5271.39 4925.5,5286.5C 4994.85,5287.38 5064.18,5288.88 5133.5,5291C 5290.16,5296.34 5446.82,5301.34 5603.5,5306C 5635.85,5307.67 5668.19,5309.67 5700.5,5312C 5721.83,5312.67 5743.17,5312.67 5764.5,5312C 5778.98,5311.03 5793.31,5309.03 5807.5,5306C 5809.45,5303.06 5810.45,5299.73 5810.5,5296C 5810.56,5293.19 5809.23,5291.53 5806.5,5291C 5776.24,5291.39 5746.58,5287.39 5717.5,5279C 5639.5,5254.67 5561.5,5230.33 5483.5,5206C 5421.09,5187.42 5358.59,5169.25 5296,5151.5C 5287.26,5164.24 5277.1,5175.74 5265.5,5186C 5254.48,5195.34 5241.82,5201.17 5227.5,5203.5C 5227.98,5182.22 5233.82,5162.55 5245,5144.5C 5249.71,5137.58 5254.54,5130.75 5259.5,5124C 5244.5,5114.5 5229.16,5105.5 5213.5,5097C 5230.47,5097.96 5247.47,5098.3 5264.5,5098C 5274.56,5090.28 5284.89,5082.94 5295.5,5076C 5302.85,5072.73 5310.51,5071.4 5318.5,5072C 5319,5072.5 5319.5,5073 5320,5073.5C 5321.66,5080.88 5321.33,5088.21 5319,5095.5C 5315.26,5105.54 5311.43,5115.54 5307.5,5125.5C 5348.08,5140.42 5389.08,5154.25 5430.5,5167C 5544.91,5201.7 5658.91,5237.36 5772.5,5274C 5517.32,5139.16 5258.48,5011.66 4996,4891.5C 4987.67,4904.17 4979.33,4916.83 4971,4929.5C 4962.19,4941.66 4951.02,4950.82 4937.5,4957C 4932.99,4958.96 4928.33,4959.63 4923.5,4959C 4917.86,4948.93 4917.03,4938.43 4921,4927.5C 4922.39,4923.71 4924.06,4920.05 4926,4916.5C 4935.09,4903.33 4943.42,4889.67 4951,4875.5C 4953.78,4867.28 4957.11,4859.28 4961,4851.5C 4964.56,4837.58 4968.9,4823.91 4974,4810.5C 4981.17,4796.33 4992.34,4791.67 5007.5,4796.5C 5013.71,4813.12 5014.87,4830.12 5011,4847.5C 5008.87,4856.61 5007.37,4865.61 5006.5,4874.5C 5164.76,4943.63 5321.1,5017.13 5475.5,5095C 5577.32,5146.74 5678.99,5198.74 5780.5,5251C 5788.37,5255.28 5796.37,5258.94 5804.5,5262C 5683.2,5099.01 5557.7,4939.18 5428,4782.5C 5364.08,4705.07 5299.24,4628.41 5233.5,4552.5C 5219.55,4561.27 5205.22,4569.43 5190.5,4577C 5181.35,4581.71 5171.68,4583.37 5161.5,4582C 5153.33,4578.46 5149,4572.13 5148.5,4563C 5148.54,4561.03 5149.04,4559.2 5150,4557.5C 5155.03,4552.08 5160.53,4547.24 5166.5,4543C 5185.02,4532.58 5202.69,4520.91 5219.5,4508C 5223.71,4503.45 5227.55,4498.62 5231,4493.5C 5237.72,4476.78 5248.22,4462.95 5262.5,4452C 5269.25,4447.86 5276.41,4444.7 5284,4442.5C 5284.8,4450.94 5284.13,4459.28 5282,4467.5C 5275.93,4487.37 5269.27,4507.03 5262,4526.5C 5260.34,4531.77 5259.34,4537.11 5259,4542.5C 5351.96,4656.46 5445.29,4770.12 5539,4883.5C 5611.76,4973.59 5683.76,5064.26 5755,5155.5C 5779.56,5187.4 5802.56,5220.4 5824,5254.5C 5824.99,5230.77 5821.32,5207.77 5813,5185.5C 5803.41,5163.07 5794.41,5140.4 5786,5117.5C 5701.86,4881.58 5618.03,4645.58 5534.5,4409.5C 5504.46,4409.97 5474.79,4406.97 5445.5,4400.5C 5445.35,4399.45 5445.52,4398.45 5446,4397.5C 5461.79,4380.35 5481.29,4369.52 5504.5,4365C 5520.5,4361.67 5536.5,4358.33 5552.5,4355C 5574.52,4342.66 5596.85,4330.82 5619.5,4319.5C 5625.13,4335.99 5622.3,4350.99 5611,4364.5C 5605.97,4369.92 5600.47,4374.76 5594.5,4379C 5582.34,4386.34 5570.34,4393.84 5558.5,4401.5C 5594.6,4510.03 5632.1,4618.03 5671,4725.5C 5730.39,4887.68 5789.39,5050.01 5848,5212.5C 5851.61,5221.34 5855.61,5230 5860,5238.5C 5861.87,5141.51 5862.7,5044.51 5862.5,4947.5C 5862.15,4802.66 5861.48,4657.83 5860.5,4513C 5861.02,4446.99 5861.69,4380.99 5862.5,4315C 5862.46,4312.91 5862.13,4310.91 5861.5,4309C 5833.9,4297.79 5806.74,4285.62 5780,4272.5C 5784,4260.34 5792.17,4252.34 5804.5,4248.5 Z"/></g>
<g><path style="opacity:0.977" fill="#fefffe" d="M 3210.5,4276.5 C 3260.36,4273.69 3300.19,4292.02 3330,4331.5C 3352.44,4369.71 3354.44,4409.05 3336,4449.5C 3333.17,4454.5 3330.33,4459.5 3327.5,4464.5C 3328.33,4464.83 3329.17,4465.17 3330,4465.5C 3340.75,4463.18 3351.58,4461.35 3362.5,4460C 3398.94,4456.52 3435.27,4452.19 3471.5,4447C 3482.62,4444.8 3493.62,4442.14 3504.5,4439C 3519.94,4433.26 3535.28,4427.6 3550.5,4422C 3540.04,4437.75 3530.21,4453.92 3521,4470.5C 3517.21,4475.96 3513.05,4481.12 3508.5,4486C 3484.64,4495.11 3459.97,4500.77 3434.5,4503C 3404.8,4505.34 3375.14,4508 3345.5,4511C 3329.14,4513.09 3313.14,4516.76 3297.5,4522C 3293.08,4524.41 3289.25,4527.58 3286,4531.5C 3278.06,4544.44 3269.73,4557.1 3261,4569.5C 3256.33,4566.17 3251.67,4562.83 3247,4559.5C 3246.11,4555.67 3245.28,4551.84 3244.5,4548C 3263.91,4518.55 3281.75,4488.05 3298,4456.5C 3317.81,4402.63 3302.31,4362.46 3251.5,4336C 3217.12,4319.34 3185.45,4323.34 3156.5,4348C 3145.21,4358.95 3135.04,4370.78 3126,4383.5C 3114.75,4403.01 3102.75,4422.01 3090,4440.5C 3084.18,4449.97 3079.01,4459.8 3074.5,4470C 3180.03,4537.85 3286.37,4604.52 3393.5,4670C 3393.83,4670.33 3394.17,4670.67 3394.5,4671C 3386,4685.5 3377.5,4700 3369,4714.5C 3253.54,4642.86 3138.38,4570.86 3023.5,4498.5C 3060.01,4438.17 3097.51,4378.5 3136,4319.5C 3155.63,4296.01 3180.46,4281.68 3210.5,4276.5 Z"/></g>
<g><path style="opacity:0.963" fill="#fefffe" d="M 7000.5,4362.5 C 7005.54,4366.88 7009.37,4372.22 7012,4378.5C 7017.03,4391.51 7019.53,4405.01 7019.5,4419C 7016.75,4444.77 7015.59,4470.6 7016,4496.5C 7016.2,4498.26 7016.7,4499.92 7017.5,4501.5C 7049.09,4498.67 7080.76,4496.51 7112.5,4495C 7129.26,4494.03 7145.93,4494.36 7162.5,4496C 7149.96,4506.3 7135.62,4512.97 7119.5,4516C 7111.56,4517.47 7103.56,4518.47 7095.5,4519C 7070.45,4519.54 7045.45,4520.87 7020.5,4523C 7010.93,4534.82 7001.59,4546.82 6992.5,4559C 7043.41,4565.25 7094.41,4570.92 7145.5,4576C 7146.17,4576.33 7146.83,4576.67 7147.5,4577C 7146.13,4584.76 7144.97,4592.59 7144,4600.5C 7083.94,4594.78 7023.77,4589.61 6963.5,4585C 6962.58,4584.63 6961.75,4584.13 6961,4583.5C 6938.56,4526.18 6919.73,4467.68 6904.5,4408C 6904.83,4407.5 6905.17,4407 6905.5,4406.5C 6913.26,4409.36 6920.76,4412.69 6928,4416.5C 6942.5,4447.18 6954.5,4478.84 6964,4511.5C 6967.07,4519.98 6970.41,4528.31 6974,4536.5C 6985.16,4521.35 6991.83,4504.35 6994,4485.5C 6995.25,4454.19 6995.92,4422.86 6996,4391.5C 6996.71,4381.69 6998.21,4372.02 7000.5,4362.5 Z"/></g>
<g><path style="opacity:0.978" fill="#fefffe" d="M 8750.5,4391.5 C 8754.25,4396.67 8757.25,4402.33 8759.5,4408.5C 8735.33,4486.84 8711.49,4565.17 8688,4643.5C 8739.12,4615.69 8790.29,4588.02 8841.5,4560.5C 8842.17,4560.83 8842.83,4561.17 8843.5,4561.5C 8850.63,4575.13 8857.97,4588.63 8865.5,4602C 8786.29,4645.37 8706.96,4688.53 8627.5,4731.5C 8623.68,4726.54 8620.35,4721.21 8617.5,4715.5C 8642.4,4636.96 8666.57,4558.3 8690,4479.5C 8638.63,4507.7 8587.13,4535.7 8535.5,4563.5C 8527.83,4549.5 8520.17,4535.5 8512.5,4521.5C 8591.9,4478.14 8671.23,4434.81 8750.5,4391.5 Z"/></g>
<g><path style="opacity:0.937" fill="#fefffe" d="M 8126.5,4394.5 C 8137.35,4393.02 8143.69,4397.69 8145.5,4408.5C 8142.12,4421.03 8134.12,4425.53 8121.5,4422C 8113.67,4415.51 8112.5,4408.01 8118,4399.5C 8120.68,4397.41 8123.52,4395.75 8126.5,4394.5 Z"/></g>
<g><path style="opacity:0.954" fill="#fefffe" d="M 7464.5,4405.5 C 7467.52,4405.34 7470.52,4405.5 7473.5,4406C 7456.57,4441.04 7439.07,4475.54 7421,4509.5C 7445.38,4519.18 7470.21,4527.68 7495.5,4535C 7519.03,4542.22 7539.2,4554.72 7556,4572.5C 7557.7,4574.7 7559.2,4577.03 7560.5,4579.5C 7552.95,4578.53 7545.28,4576.7 7537.5,4574C 7512.3,4564.93 7486.97,4556.27 7461.5,4548C 7445.8,4543.26 7429.8,4540.59 7413.5,4540C 7420.17,4551.67 7428.01,4562.51 7437,4572.5C 7454.81,4589.4 7472.81,4606.07 7491,4622.5C 7499.93,4632.09 7508.09,4642.26 7515.5,4653C 7515,4653.17 7514.5,4653.33 7514,4653.5C 7490.18,4644.31 7468.34,4631.81 7448.5,4616C 7426.67,4598.17 7406.83,4578.33 7389,4556.5C 7389.76,4533.12 7395.1,4510.78 7405,4489.5C 7416.84,4465.82 7429.17,4442.49 7442,4419.5C 7447.86,4412.13 7455.36,4407.46 7464.5,4405.5 Z"/></g>
<g><path style="opacity:0.936" fill="#fefffe" d="M 7093.5,4408.5 C 7108.74,4406.3 7114.24,4412.63 7110,4427.5C 7110.23,4430.81 7108.73,4432.64 7105.5,4433C 7085.91,4437.22 7079.57,4429.72 7086.5,4410.5C 7089.07,4410.28 7091.4,4409.61 7093.5,4408.5 Z"/></g>
<g><path style="opacity:0.953" fill="#fefffe" d="M 7911.5,4453.5 C 7912.38,4453.37 7913.04,4453.7 7913.5,4454.5C 7897.01,4489.64 7879.35,4524.14 7860.5,4558C 7884.34,4567.71 7908.67,4576.04 7933.5,4583C 7956.08,4589.95 7975.91,4601.45 7993,4617.5C 7995.69,4620.69 7998.19,4624.03 8000.5,4627.5C 7999.83,4627.83 7999.17,4628.17 7998.5,4628.5C 7992.79,4627.16 7987.12,4625.66 7981.5,4624C 7953.93,4614.38 7926.26,4605.05 7898.5,4596C 7884.09,4591.55 7869.42,4589.38 7854.5,4589.5C 7859.69,4599.19 7865.86,4608.19 7873,4616.5C 7894.7,4637.86 7916.7,4658.86 7939,4679.5C 7945.08,4686.41 7950.58,4693.74 7955.5,4701.5C 7955.17,4701.83 7954.83,4702.17 7954.5,4702.5C 7923.9,4690.37 7896.56,4673.2 7872.5,4651C 7857.23,4636.74 7843.07,4621.57 7830,4605.5C 7829.91,4583.17 7834.58,4561.84 7844,4541.5C 7855.89,4516.73 7868.55,4492.39 7882,4468.5C 7889.75,4459.21 7899.58,4454.21 7911.5,4453.5 Z"/></g>
<g><path style="opacity:0.932" fill="#fefffe" d="M 7507.5,4462.5 C 7522.67,4462.83 7527.84,4470.16 7523,4484.5C 7517.14,4491.37 7509.97,4493.2 7501.5,4490C 7494.41,4484.41 7492.91,4477.57 7497,4469.5C 7500,4466.26 7503.5,4463.93 7507.5,4462.5 Z"/></g>
<g><path style="opacity:0.977" fill="#fefffe" d="M 8919.5,4720.5 C 8920.75,4720.58 8921.58,4721.24 8922,4722.5C 8949.83,4791.5 8977.67,4860.5 9005.5,4929.5C 8991.41,4935.92 8977.07,4941.42 8962.5,4946C 8951.48,4918.79 8940.31,4891.62 8929,4864.5C 8863.18,4891.33 8797.35,4918.16 8731.5,4945C 8727.69,4946.88 8723.69,4948.05 8719.5,4948.5C 8714.03,4933.42 8708.36,4918.42 8702.5,4903.5C 8771.58,4876.13 8840.58,4848.46 8909.5,4820.5C 8910.61,4819.28 8910.78,4817.94 8910,4816.5C 8899.6,4790.46 8889.1,4764.46 8878.5,4738.5C 8892.04,4732.23 8905.71,4726.23 8919.5,4720.5 Z"/></g>
<g><path style="opacity:0.977" fill="#fefffe" d="M 3041.5,4734.5 C 3132.03,4731.69 3204.53,4766.02 3259,4837.5C 3287.73,4878.09 3299.07,4923.09 3293,4972.5C 3285.13,5013.42 3264.3,5045.92 3230.5,5070C 3183.77,5100.85 3132.44,5113.18 3076.5,5107C 3002.27,5097.01 2943.44,5061.84 2900,5001.5C 2872.14,4959.73 2862.14,4914.06 2870,4864.5C 2877.59,4832.15 2893.75,4804.99 2918.5,4783C 2954.23,4753.59 2995.23,4737.42 3041.5,4734.5 Z M 3011.5,4783.5 C 3084.9,4780.36 3149.9,4801.86 3206.5,4848C 3225.45,4863.27 3240.28,4881.77 3251,4903.5C 3255.27,4912.47 3258.43,4921.8 3260.5,4931.5C 3263.2,4931.53 3265.7,4930.87 3268,4929.5C 3266.23,4934.4 3264.4,4939.4 3262.5,4944.5C 3264.51,4984.65 3248.84,5015.82 3215.5,5038C 3182.95,5056.71 3147.95,5063.71 3110.5,5059C 3035.59,5051.8 2973.76,5019.97 2925,4963.5C 2909.41,4941.65 2900.58,4917.32 2898.5,4890.5C 2898.88,4879.7 2900.22,4869.03 2902.5,4858.5C 2900.3,4858.43 2898.3,4857.77 2896.5,4856.5C 2899.86,4853.97 2903.36,4851.64 2907,4849.5C 2919.92,4823.12 2940.08,4804.62 2967.5,4794C 2981.86,4788.58 2996.52,4785.08 3011.5,4783.5 Z"/></g>
<g><path style="opacity:0.953" fill="#fefffe" d="M 7485.5,4751.5 C 7486.87,4751.34 7488.21,4751.51 7489.5,4752C 7472.86,4794.91 7454.86,4837.24 7435.5,4879C 7447.31,4877.1 7457.97,4872.43 7467.5,4865C 7483.74,4851.77 7499.07,4837.43 7513.5,4822C 7527.68,4807.99 7544.52,4798.49 7564,4793.5C 7564.5,4793.83 7565,4794.17 7565.5,4794.5C 7557.57,4805.93 7549.07,4816.93 7540,4827.5C 7518.17,4850.67 7496.33,4873.83 7474.5,4897C 7464.83,4895.34 7455.33,4892.84 7446,4889.5C 7445.83,4889.83 7445.67,4890.17 7445.5,4890.5C 7460.16,4916.5 7475.33,4942.16 7491,4967.5C 7498.47,4981.26 7504.97,4995.43 7510.5,5010C 7502.87,5007.34 7495.87,5003.34 7489.5,4998C 7479.56,4989.06 7470.72,4979.23 7463,4968.5C 7448.75,4947.67 7434.75,4926.67 7421,4905.5C 7415.68,4896.7 7412.52,4887.2 7411.5,4877C 7411.96,4872.75 7412.79,4868.59 7414,4864.5C 7419.51,4855.48 7424.51,4846.15 7429,4836.5C 7435.51,4818.49 7442.84,4800.82 7451,4783.5C 7458.55,4768.44 7470.05,4757.78 7485.5,4751.5 Z"/></g>
<g><path style="opacity:0.944" fill="#fefffe" d="M 7928.5,4788.5 C 7944.35,4790.19 7949.51,4798.53 7944,4813.5C 7936.93,4820.9 7928.76,4822.4 7919.5,4818C 7909.35,4803.95 7912.35,4794.11 7928.5,4788.5 Z"/></g>
<g><path style="opacity:0.958" fill="#fefffe" d="M 7131.5,4804.5 C 7133.34,4805.12 7134.5,4806.46 7135,4808.5C 7137.03,4814.72 7139.19,4820.89 7141.5,4827C 7136.63,4840.25 7130.79,4853.08 7124,4865.5C 7109.23,4890.45 7095.07,4915.78 7081.5,4941.5C 7098.01,4940.83 7113.34,4936 7127.5,4927C 7134.68,4922.25 7141.68,4917.25 7148.5,4912C 7166.5,4896 7184.5,4880 7202.5,4864C 7208.83,4859.67 7215.17,4855.33 7221.5,4851C 7224.3,4849.09 7227.3,4848.09 7230.5,4848C 7227.95,4862.6 7221.78,4875.44 7212,4886.5C 7206.47,4892.37 7200.64,4897.87 7194.5,4903C 7178.88,4914.28 7163.55,4925.95 7148.5,4938C 7144.32,4942.01 7140.32,4946.18 7136.5,4950.5C 7158.79,4972.29 7180.96,4994.29 7203,5016.5C 7214.87,5029.37 7226.37,5042.54 7237.5,5056C 7225.31,5055.25 7213.97,5051.58 7203.5,5045C 7199.17,5042 7194.83,5039 7190.5,5036C 7167.15,5013.91 7144.48,4991.25 7122.5,4968C 7107.17,4968.5 7091.84,4969.5 7076.5,4971C 7106.11,5013.61 7136.11,5055.94 7166.5,5098C 7160.07,5102.63 7153.57,5107.13 7147,5111.5C 7115.27,5069.08 7083.27,5026.75 7051,4984.5C 7046.27,4977.95 7041.77,4971.28 7037.5,4964.5C 7065.81,4909.18 7097.15,4855.84 7131.5,4804.5 Z"/></g>
<g><path style="opacity:0.942" fill="#fefffe" d="M 7535.5,4847.5 C 7551.86,4847.89 7557.69,4855.89 7553,4871.5C 7546.78,4879.34 7538.95,4881.51 7529.5,4878C 7520.07,4869.02 7519.74,4860.02 7528.5,4851C 7530.93,4849.79 7533.26,4848.62 7535.5,4847.5 Z"/></g>
<g><path style="opacity:0.948" fill="#fefffe" d="M 7231.5,4942.5 C 7248.21,4940.71 7255.04,4948.04 7252,4964.5C 7246.64,4972.62 7239.14,4975.46 7229.5,4973C 7219.66,4965.87 7217.99,4957.2 7224.5,4947C 7226.9,4945.48 7229.23,4943.98 7231.5,4942.5 Z"/></g>
<g><path style="opacity:0.98" fill="#fefffe" d="M 8935.5,5057.5 C 9014.25,5054.44 9064.08,5090.77 9085,5166.5C 9099.36,5243.97 9070.52,5298.13 8998.5,5329C 8956.58,5344.64 8915.58,5342.64 8875.5,5323C 8837.8,5299.91 8814.97,5266.41 8807,5222.5C 8797.31,5151.69 8824.48,5100.86 8888.5,5070C 8903.75,5063.77 8919.42,5059.61 8935.5,5057.5 Z M 8947.5,5105.5 C 8995.25,5106.43 9025.75,5129.77 9039,5175.5C 9048.17,5230.67 9026.33,5267.5 8973.5,5286C 8934.11,5297.62 8900.61,5288.45 8873,5258.5C 8849.06,5225.41 8845.73,5190.41 8863,5153.5C 8877.9,5129.95 8899.07,5115.11 8926.5,5109C 8933.58,5107.44 8940.58,5106.28 8947.5,5105.5 Z"/></g>
<g><path style="opacity:0.941" fill="#fefffe" d="M 7506.5,5104.5 C 7517.68,5104.01 7524.02,5109.35 7525.5,5120.5C 7522.01,5134.42 7513.34,5139.25 7499.5,5135C 7489.84,5126.14 7489.5,5117.14 7498.5,5108C 7501.16,5106.52 7503.82,5105.36 7506.5,5104.5 Z"/></g>
<g><path style="opacity:0.944" fill="#fefffe" d="M 7364.5,5349.5 C 7379.18,5351.34 7384.34,5359.34 7380,5373.5C 7372.65,5383.65 7363.82,5385.15 7353.5,5378C 7345.85,5364.13 7349.52,5354.63 7364.5,5349.5 Z"/></g>
<g><path style="opacity:0.942" fill="#fefffe" d="M 7158.5,5416.5 C 7170.7,5415.03 7177.7,5420.37 7179.5,5432.5C 7176.93,5444.29 7169.6,5449.46 7157.5,5448C 7149.9,5445.49 7145.9,5440.16 7145.5,5432C 7146.7,5424.04 7151.03,5418.88 7158.5,5416.5 Z"/></g>
<g><path style="opacity:0.98" fill="#fefffe" d="M 9141.5,5436.5 C 9143.12,5437.59 9143.95,5439.26 9144,5441.5C 9146.39,5455.81 9148.55,5470.14 9150.5,5484.5C 9076.85,5496.33 9003.18,5508.16 8929.5,5520C 8928.92,5520.89 8928.59,5521.89 8928.5,5523C 8936.51,5570.73 8943.85,5618.39 8950.5,5666C 8935.8,5668.39 8921.13,5670.89 8906.5,5673.5C 8895.52,5608.94 8885.18,5544.27 8875.5,5479.5C 8964.36,5465.58 9053.03,5451.24 9141.5,5436.5 Z"/></g>
<g><path style="opacity:0.977" fill="#fefffe" d="M 3133.5,5517.5 C 3134.78,5518.69 3135.44,5520.36 3135.5,5522.5C 3133.63,5539.5 3131.8,5556.5 3130,5573.5C 3129.63,5574.42 3129.13,5575.25 3128.5,5576C 3078.71,5590.6 3029.05,5605.6 2979.5,5621C 2942.5,5640.45 2922.66,5671.28 2920,5713.5C 2917.73,5743.07 2920.73,5772.07 2929,5800.5C 2984.42,5827.46 3039.92,5854.29 3095.5,5881C 3096.02,5881.56 3096.36,5882.23 3096.5,5883C 3094.95,5893.11 3093.95,5903.27 3093.5,5913.5C 2956.44,5843.8 2819.44,5773.8 2682.5,5703.5C 2682.17,5702.33 2681.83,5701.17 2681.5,5700C 2683.27,5685.18 2684.93,5670.34 2686.5,5655.5C 2686.65,5653.68 2687.32,5652.18 2688.5,5651C 2837.04,5606.76 2985.37,5562.26 3133.5,5517.5 Z M 2892.5,5646.5 C 2893.04,5646.56 2893.38,5646.89 2893.5,5647.5C 2886.28,5666.84 2882.94,5686.84 2883.5,5707.5C 2883.32,5719.9 2884.15,5732.24 2886,5744.5C 2888.2,5756.27 2890.53,5767.94 2893,5779.5C 2837.93,5752.05 2783.1,5724.22 2728.5,5696C 2783.31,5679.56 2837.98,5663.06 2892.5,5646.5 Z"/></g>
<g><path style="opacity:0.98" fill="#fefffe" d="M 9037.5,5733.5 C 9076.98,5730.28 9112.98,5739.78 9145.5,5762C 9180.99,5790.91 9198.32,5828.41 9197.5,5874.5C 9196.97,5932.42 9170.97,5974.25 9119.5,6000C 9069.98,6020.21 9021.98,6017.21 8975.5,5991C 8934.85,5961.7 8914.51,5921.7 8914.5,5871C 8919.26,5792.61 8960.26,5746.78 9037.5,5733.5 Z M 9055.5,5775.5 C 9056.46,5777.26 9056.79,5779.26 9056.5,5781.5C 9092.27,5781.13 9119.77,5795.8 9139,5825.5C 9157.25,5861.42 9155.25,5896.08 9133,5929.5C 9111.64,5952.96 9084.98,5964.63 9053,5964.5C 9005.73,5962.72 8976.06,5939.05 8964,5893.5C 8957.23,5859.75 8965.73,5830.58 8989.5,5806C 9007.64,5790.77 9028.64,5782.44 9052.5,5781C 9053.76,5779.26 9054.76,5777.43 9055.5,5775.5 Z"/></g>
<g><path style="opacity:0.979" fill="#fefffe" d="M 3081.5,5981.5 C 3083.32,6005.65 3084.15,6029.98 3084,6054.5C 3083.64,6056.61 3082.97,6058.61 3082,6060.5C 3071.95,6074.22 3060.79,6087.05 3048.5,6099C 3020.79,6122.38 2992.79,6145.38 2964.5,6168C 2952.3,6178.53 2941.13,6190.03 2931,6202.5C 2928.03,6207.08 2926.03,6212.08 2925,6217.5C 2924.64,6233.5 2924.81,6249.5 2925.5,6265.5C 2919.16,6265.67 2912.82,6265.5 2906.5,6265C 2904.71,6262.2 2902.54,6259.7 2900,6257.5C 2898.74,6236.52 2897.74,6215.52 2897,6194.5C 2897.4,6165.37 2890.74,6138.04 2877,6112.5C 2861.7,6091.26 2840.86,6079.42 2814.5,6077C 2750.56,6073.61 2715.73,6103.78 2710,6167.5C 2709.51,6203.54 2710.51,6239.54 2713,6275.5C 2713.52,6279.58 2714.35,6283.58 2715.5,6287.5C 2718,6287.83 2720.5,6288.17 2723,6288.5C 2846.17,6284.37 2969.34,6280.03 3092.5,6275.5C 3093.71,6289.82 3094.21,6304.15 3094,6318.5C 3091.83,6320.67 3089.67,6322.83 3087.5,6325C 2954.51,6330.43 2821.51,6335.59 2688.5,6340.5C 2685.56,6269.85 2683.39,6199.18 2682,6128.5C 2690.34,6068.16 2724.51,6032.66 2784.5,6022C 2825.71,6017.07 2860.88,6029.24 2890,6058.5C 2910.09,6082.74 2920.75,6110.74 2922,6142.5C 2948.95,6116.47 2977.12,6091.97 3006.5,6069C 3026.41,6052.43 3044.24,6033.93 3060,6013.5C 3067.39,6002.95 3074.55,5992.29 3081.5,5981.5 Z"/></g>
<g><path style="opacity:0.98" fill="#fefffe" d="M 9046.5,6122.5 C 9094.53,6122.27 9134.03,6140.27 9165,6176.5C 9189.96,6212.92 9197.96,6252.92 9189,6296.5C 9183.57,6325.86 9170.4,6351.03 9149.5,6372C 9146.97,6374.03 9144.3,6375.86 9141.5,6377.5C 9131.98,6368.81 9122.31,6360.31 9112.5,6352C 9110.44,6350.28 9108.78,6348.28 9107.5,6346C 9140.25,6316.4 9151.75,6279.9 9142,6236.5C 9130.54,6202.71 9107.37,6181.87 9072.5,6174C 9042.99,6167.6 9015.66,6172.6 8990.5,6189C 8967.16,6208.19 8955.49,6233.02 8955.5,6263.5C 8956.37,6303.52 8976.04,6328.69 9014.5,6339C 9016.44,6339.74 9018.27,6339.58 9020,6338.5C 9022.22,6307.78 9024.72,6277.12 9027.5,6246.5C 9042.84,6246.33 9058.17,6247.17 9073.5,6249C 9069.25,6296.4 9065.58,6343.9 9062.5,6391.5C 9033.1,6391.93 9004.77,6386.77 8977.5,6376C 8938.06,6357.2 8915.56,6326.04 8910,6282.5C 8905.29,6239.99 8915.96,6201.99 8942,6168.5C 8970.31,6138.34 9005.14,6123.01 9046.5,6122.5 Z"/></g>
<g><path style="opacity:0.978" fill="#fefffe" d="M 3028.5,6443.5 C 3072.5,6443.03 3105,6462.03 3126,6500.5C 3149.38,6547.03 3157.38,6596.03 3150,6647.5C 3141.09,6688.74 3116.26,6714.58 3075.5,6725C 2968.26,6746.71 2860.59,6765.71 2752.5,6782C 2749.06,6765.39 2745.73,6748.72 2742.5,6732C 2742.64,6731.23 2742.98,6730.56 2743.5,6730C 2852.92,6707.73 2960.92,6688.23 3067.5,6671.5C 3084.84,6665.66 3096.34,6653.99 3102,6636.5C 3110.67,6598.51 3108.34,6561.18 3095,6524.5C 3090.13,6512.59 3083.63,6501.76 3075.5,6492C 3060.83,6478.33 3043.5,6472.99 3023.5,6476C 2917.38,6492.8 2811.72,6511.96 2706.5,6533.5C 2703.91,6523.57 2701.58,6513.57 2699.5,6503.5C 2809.68,6485.75 2919.35,6465.75 3028.5,6443.5 Z"/></g>
<g><path style="opacity:0.979" fill="#fefffe" d="M 8886.5,6490.5 C 8976.03,6505.31 9065.36,6520.98 9154.5,6537.5C 9151.4,6552.76 9148.74,6568.09 9146.5,6583.5C 9057.48,6568.55 8968.48,6553.39 8879.5,6538C 8878.92,6537.11 8878.59,6536.11 8878.5,6535C 8881.12,6520.14 8883.78,6505.3 8886.5,6490.5 Z"/></g>
<g><path style="opacity:0.98" fill="#fefffe" d="M 8863.5,6627.5 C 8940.1,6693.09 9016.1,6759.43 9091.5,6826.5C 9090.89,6834.89 9086.89,6841.05 9079.5,6845C 8983.82,6864.1 8888.15,6883.27 8792.5,6902.5C 8791.83,6902.17 8791.17,6901.83 8790.5,6901.5C 8795.01,6884.46 8799.68,6867.46 8804.5,6850.5C 8820.37,6846.89 8836.21,6843.23 8852,6839.5C 8863.58,6797.34 8875.08,6755.17 8886.5,6713C 8874.97,6701.8 8863.13,6690.96 8851,6680.5C 8850.33,6678.83 8850.33,6677.17 8851,6675.5C 8855.28,6659.51 8859.44,6643.51 8863.5,6627.5 Z M 8925.5,6747.5 C 8952.29,6768.45 8978.96,6789.62 9005.5,6811C 8971.62,6817.87 8937.62,6823.87 8903.5,6829C 8911.13,6801.93 8918.47,6774.76 8925.5,6747.5 Z"/></g>
<g><path style="opacity:0.977" fill="#fefffe" d="M 3201.5,6810.5 C 3202.5,6810.47 3203.16,6810.97 3203.5,6812C 3209.54,6829.95 3215.87,6847.78 3222.5,6865.5C 3183.28,6901.37 3144.11,6937.37 3105,6973.5C 3084.93,7000.23 3078.93,7029.89 3087,7062.5C 3096.95,7097.25 3113.79,7128.08 3137.5,7155C 3199.84,7155.51 3262.17,7156.34 3324.5,7157.5C 3328.44,7167.31 3331.77,7177.31 3334.5,7187.5C 3180.5,7182.8 3026.5,7178.13 2872.5,7173.5C 2867.03,7157.76 2861.36,7142.09 2855.5,7126.5C 2971.15,7021.51 3086.49,6916.18 3201.5,6810.5 Z M 3039.5,7031.5 C 3041.47,7049.36 3045.97,7066.69 3053,7083.5C 3064.22,7108.81 3079.06,7131.64 3097.5,7152C 3035.84,7151.18 2974.18,7149.85 2912.5,7148C 2954.91,7109.15 2997.24,7070.32 3039.5,7031.5 Z"/></g>
<g><path style="opacity:0.981" fill="#fefffe" d="M 8726.5,7082.5 C 8728.02,7082.51 8729.18,7083.18 8730,7084.5C 8793.31,7161.31 8856.81,7237.98 8920.5,7314.5C 8918.9,7322.21 8914.57,7327.71 8907.5,7331C 8808.49,7334.8 8709.49,7338.63 8610.5,7342.5C 8617.5,7325.83 8624.5,7309.17 8631.5,7292.5C 8648.2,7292.03 8664.87,7291.03 8681.5,7289.5C 8699.5,7249.5 8717.5,7209.5 8735.5,7169.5C 8725.53,7156.39 8715.19,7143.56 8704.5,7131C 8711.7,7114.76 8719.04,7098.6 8726.5,7082.5 Z M 8768.5,7210.5 C 8791.97,7235.47 8815.3,7260.64 8838.5,7286C 8803.85,7287.22 8769.18,7288.05 8734.5,7288.5C 8745.64,7262.43 8756.97,7236.43 8768.5,7210.5 Z"/></g>
<g><path style="opacity:0.979" fill="#fefffe" d="M 8536.5,7478.5 C 8635.54,7485.31 8734.54,7492.65 8833.5,7500.5C 8824.64,7516.24 8815.31,7531.57 8805.5,7546.5C 8754.19,7542.76 8702.86,7539.26 8651.5,7536C 8634.16,7533.66 8616.82,7531.66 8599.5,7530C 8610,7543.17 8620.5,7556.33 8631,7569.5C 8659.64,7612.97 8688.47,7656.3 8717.5,7699.5C 8708.58,7715 8699.42,7730.33 8690,7745.5C 8634.17,7661.67 8578.33,7577.83 8522.5,7494C 8524.21,7490.75 8526.04,7487.58 8528,7484.5C 8530.99,7482.6 8533.82,7480.6 8536.5,7478.5 Z"/></g>
<g><path style="opacity:0.98" fill="#fefffe" d="M 8441.5,7629.5 C 8442.68,7629.28 8443.68,7629.61 8444.5,7630.5C 8490.67,7718.83 8536.83,7807.17 8583,7895.5C 8581.94,7900.08 8579.44,7903.92 8575.5,7907C 8572.38,7908.31 8569.21,7909.48 8566,7910.5C 8468.75,7893.54 8371.58,7876.21 8274.5,7858.5C 8284.96,7844.42 8295.29,7830.26 8305.5,7816C 8322.17,7818 8338.83,7820 8355.5,7822C 8381.5,7786.67 8407.5,7751.33 8433.5,7716C 8425.9,7701.47 8418.57,7686.81 8411.5,7672C 8421.73,7657.95 8431.73,7643.78 8441.5,7629.5 Z M 8456.5,7763.5 C 8457.38,7763.37 8458.04,7763.7 8458.5,7764.5C 8475.37,7793.75 8492.37,7822.92 8509.5,7852C 8475.16,7845.73 8440.83,7839.07 8406.5,7832C 8423.55,7809.37 8440.22,7786.54 8456.5,7763.5 Z"/></g>
<g><path style="opacity:0.979" fill="#fefffe" d="M 8216.5,7925.5 C 8219.6,7927.42 8222.6,7929.59 8225.5,7932C 8289.01,7991.34 8352.34,8050.84 8415.5,8110.5C 8411.29,8115.2 8406.96,8119.7 8402.5,8124C 8320.49,8125.76 8238.49,8127.76 8156.5,8130C 8199.29,8169.15 8241.79,8208.65 8284,8248.5C 8284.67,8249.5 8284.67,8250.5 8284,8251.5C 8273.63,8262.87 8262.96,8273.87 8252,8284.5C 8185.7,8223.37 8119.87,8161.7 8054.5,8099.5C 8059.44,8093.05 8065.44,8087.89 8072.5,8084C 8152.83,8082.9 8233.17,8081.9 8313.5,8081C 8271,8041.17 8228.5,8001.33 8186,7961.5C 8185.33,7960.5 8185.33,7959.5 8186,7958.5C 8196.37,7947.63 8206.54,7936.63 8216.5,7925.5 Z"/></g>
<g><path style="opacity:0.977" fill="#fefffe" d="M 7848.5,8199.5 C 7856.85,8197.74 7863.69,8200.07 7869,8206.5C 7870.95,8215.1 7872.45,8223.77 7873.5,8232.5C 7864.41,8230.55 7855.74,8231.72 7847.5,8236C 7844.69,8238.07 7842.35,8240.57 7840.5,8243.5C 7844.05,8246.2 7847.88,8248.53 7852,8250.5C 7852.33,8248.95 7851.83,8247.62 7850.5,8246.5C 7851.12,8243.63 7851.79,8240.8 7852.5,8238C 7861.7,8236.9 7870.7,8237.74 7879.5,8240.5C 7880.18,8242.89 7881.01,8245.22 7882,8247.5C 7926.73,8222.43 7971.89,8221.6 8017.5,8245C 8065.23,8273.93 8090.9,8316.43 8094.5,8372.5C 8089.25,8437.18 8056.58,8481.68 7996.5,8506C 7977.93,8512.72 7958.93,8514.56 7939.5,8511.5C 7937.98,8495.87 7937.15,8480.2 7937,8464.5C 7982.99,8468.68 8016.65,8450.34 8038,8409.5C 8053.05,8365.22 8042.89,8327.72 8007.5,8297C 7973.72,8272.35 7938.39,8270.02 7901.5,8290C 7873.23,8308.47 7858.23,8334.63 7856.5,8368.5C 7841.1,8365.48 7825.77,8362.15 7810.5,8358.5C 7811.42,8330.18 7821.09,8305.34 7839.5,8284C 7814.81,8278.3 7803.64,8262.8 7806,8237.5C 7813.34,8217.1 7827.5,8204.43 7848.5,8199.5 Z"/></g>
<g><path style="opacity:0.98" fill="#fefffe" d="M 4156.5,8305.5 C 4212.42,8304.05 4256.92,8325.71 4290,8370.5C 4320.98,8420.55 4321.31,8470.89 4291,8521.5C 4263.18,8565.42 4223.18,8589.09 4171,8592.5C 4111.92,8588.15 4068.25,8560.15 4040,8508.5C 4017.9,8453.07 4025.9,8402.4 4064,8356.5C 4088.31,8327.7 4119.14,8310.7 4156.5,8305.5 Z M 4161.5,8353.5 C 4204.56,8352.6 4236.39,8370.94 4257,8408.5C 4270.78,8445.15 4265.11,8478.48 4240,8508.5C 4206.49,8545.94 4167.32,8553.44 4122.5,8531C 4076.06,8499.67 4064.56,8458.5 4088,8407.5C 4104.25,8378.05 4128.75,8360.05 4161.5,8353.5 Z"/></g>
<g><path style="opacity:0.98" fill="#fefffe" d="M 7739.5,8367.5 C 7741.2,8369.31 7742.03,8371.64 7742,8374.5C 7754.55,8472.09 7767.39,8569.59 7780.5,8667C 7772.94,8674.69 7764.27,8676.35 7754.5,8672C 7670.67,8623.25 7587,8574.25 7503.5,8525C 7518.2,8514.66 7533.2,8504.82 7548.5,8495.5C 7560.45,8501.48 7572.12,8507.98 7583.5,8515C 7586.3,8516.91 7589.3,8517.91 7592.5,8518C 7627.83,8494.67 7663.17,8471.33 7698.5,8448C 7700.21,8447.22 7701.21,8445.89 7701.5,8444C 7699.13,8428.22 7697.63,8412.39 7697,8396.5C 7711.34,8386.97 7725.51,8377.3 7739.5,8367.5 Z M 7706.5,8498.5 C 7707.65,8498.79 7708.32,8499.62 7708.5,8501C 7714.06,8533.02 7719.73,8565.02 7725.5,8597C 7725.17,8597.83 7724.83,8598.67 7724.5,8599.5C 7695.33,8581.75 7666.33,8563.75 7637.5,8545.5C 7660.74,8530.06 7683.74,8514.39 7706.5,8498.5 Z"/></g>
<g><path style="opacity:0.978" fill="#fefffe" d="M 4456.5,8484.5 C 4462.53,8486.93 4468.03,8490.26 4473,8494.5C 4493.33,8573.83 4513.67,8653.17 4534,8732.5C 4563.67,8681.5 4593.33,8630.5 4623,8579.5C 4636.92,8587.54 4650.75,8595.71 4664.5,8604C 4620.21,8680.75 4576.04,8757.59 4532,8834.5C 4531.1,8836.33 4529.77,8837.66 4528,8838.5C 4522.18,8836.02 4517.01,8832.68 4512.5,8828.5C 4492.16,8749.46 4471.66,8670.46 4451,8591.5C 4421.71,8641.92 4392.54,8692.42 4363.5,8743C 4349.2,8736.01 4335.2,8728.17 4321.5,8719.5C 4366.26,8640.98 4411.26,8562.64 4456.5,8484.5 Z"/></g>
<g><path style="opacity:0.98" fill="#fefffe" d="M 7422.5,8568.5 C 7423.68,8568.28 7424.68,8568.61 7425.5,8569.5C 7465.97,8649.6 7506.3,8729.77 7546.5,8810C 7514.84,8826.83 7482.84,8843.16 7450.5,8859C 7413.76,8875.48 7376.42,8877.15 7338.5,8864C 7304.49,8848.32 7280.32,8823.15 7266,8788.5C 7240.34,8713.68 7261.5,8656.18 7329.5,8616C 7360.87,8600.65 7391.87,8584.81 7422.5,8568.5 Z M 7400.5,8631.5 C 7401.5,8631.41 7402.33,8631.75 7403,8632.5C 7429.76,8685.01 7456.26,8737.68 7482.5,8790.5C 7464.09,8801.04 7445.09,8810.54 7425.5,8819C 7371.87,8835.25 7333.37,8818.08 7310,8767.5C 7295.4,8719.96 7309.24,8683.12 7351.5,8657C 7367.89,8648.47 7384.23,8639.97 7400.5,8631.5 Z"/></g>
<g><path style="opacity:0.98" fill="#fefffe" d="M 4830.5,8689.5 C 4882.65,8689.66 4924.82,8709.99 4957,8750.5C 4983.38,8791.75 4988.05,8835.41 4971,8881.5C 4948.18,8939.48 4905.68,8970.82 4843.5,8975.5C 4795.12,8973.39 4755.28,8954.06 4724,8917.5C 4701.36,8885.96 4693.36,8850.96 4700,8812.5C 4709.26,8762.61 4736.1,8725.78 4780.5,8702C 4796.59,8694.98 4813.26,8690.81 4830.5,8689.5 Z M 4828.5,8737.5 C 4861.43,8735.86 4889.27,8746.86 4912,8770.5C 4934.6,8800.4 4938.6,8832.73 4924,8867.5C 4902.5,8915.33 4866,8934.17 4814.5,8924C 4768.3,8909.43 4745.8,8877.93 4747,8829.5C 4750.75,8796.48 4765.92,8770.31 4792.5,8751C 4803.75,8744.2 4815.75,8739.7 4828.5,8737.5 Z"/></g>
<g><path style="opacity:0.98" fill="#fefffe" d="M 7150.5,8702.5 C 7151.16,8703.79 7151.49,8705.29 7151.5,8707C 7141.72,8805.92 7131.39,8904.75 7120.5,9003.5C 7117.17,9004.83 7113.83,9006.17 7110.5,9007.5C 7106.81,9006.81 7103.14,9005.97 7099.5,9005C 7028.83,8938.33 6958.17,8871.67 6887.5,8805C 6885.96,8803.89 6885.3,8802.39 6885.5,8800.5C 6902.21,8794.71 6918.87,8788.71 6935.5,8782.5C 6947.53,8793.7 6959.7,8804.7 6972,8815.5C 7013.16,8800.39 7054.33,8785.39 7095.5,8770.5C 7097.57,8753.85 7099.57,8737.18 7101.5,8720.5C 7118.2,8715.27 7134.54,8709.27 7150.5,8702.5 Z M 7088.5,8822.5 C 7089.38,8822.37 7090.04,8822.7 7090.5,8823.5C 7088.08,8857.45 7085.91,8891.45 7084,8925.5C 7059.5,8901 7035,8876.5 7010.5,8852C 7036.64,8842.24 7062.64,8832.4 7088.5,8822.5 Z"/></g>
<g><path style="opacity:0.978" fill="#fefffe" d="M 5153.5,8806.5 C 5201.68,8805.17 5244.02,8820 5280.5,8851C 5288.89,8859.12 5295.56,8868.45 5300.5,8879C 5289.3,8888.95 5277.63,8898.45 5265.5,8907.5C 5249.25,8882.51 5226.58,8866.01 5197.5,8858C 5184.76,8854.13 5171.76,8852.8 5158.5,8854C 5138.4,8858.69 5130.24,8871.19 5134,8891.5C 5140.12,8901.29 5147.96,8909.46 5157.5,8916C 5172.83,8926 5188.17,8936 5203.5,8946C 5219.79,8956.57 5233.62,8969.73 5245,8985.5C 5258.61,9011.9 5257.28,9037.57 5241,9062.5C 5228.15,9078.85 5211.32,9088.35 5190.5,9091C 5141.78,9093.33 5098.45,9079.33 5060.5,9049C 5053.18,9042.5 5047.18,9035 5042.5,9026.5C 5054.2,9016.3 5066.03,9006.3 5078,8996.5C 5099.28,9022.74 5126.78,9038.57 5160.5,9044C 5167.5,9044.67 5174.5,9044.67 5181.5,9044C 5199.19,9041.01 5206.69,9030.85 5204,9013.5C 5197.5,9004.33 5189.67,8996.5 5180.5,8990C 5157.68,8976.17 5135.68,8961.17 5114.5,8945C 5078.82,8912.95 5073.66,8876.45 5099,8835.5C 5113.13,8818.2 5131.29,8808.53 5153.5,8806.5 Z"/></g>
<g><path style="opacity:0.98" fill="#fefffe" d="M 6645.5,8862.5 C 6647.77,8862.14 6649.6,8862.81 6651,8864.5C 6668.19,8952.47 6684.86,9040.47 6701,9128.5C 6634.67,9141.5 6568.33,9154.5 6502,9167.5C 6498.51,9152.25 6495.35,9136.91 6492.5,9121.5C 6543.53,9111.96 6594.53,9102.29 6645.5,9092.5C 6641.24,9070.21 6637.24,9047.88 6633.5,9025.5C 6588.2,9034.05 6542.87,9042.38 6497.5,9050.5C 6494.73,9035.52 6492.06,9020.52 6489.5,9005.5C 6534.17,8997.17 6578.83,8988.83 6623.5,8980.5C 6619.83,8959.17 6616.17,8937.84 6612.5,8916.5C 6561.17,8926.17 6509.83,8935.83 6458.5,8945.5C 6456,8931.32 6453.33,8917.15 6450.5,8903C 6450.75,8901.67 6451.42,8900.67 6452.5,8900C 6517.03,8887.79 6581.36,8875.29 6645.5,8862.5 Z"/></g>
<g><path style="opacity:0.98" fill="#fefffe" d="M 5678.5,8908.5 C 5726.23,8906.97 5766.07,8923.63 5798,8958.5C 5822.8,8991.38 5832.47,9028.38 5827,9069.5C 5820.45,9121.17 5793.95,9158.34 5747.5,9181C 5700.33,9198.27 5654.67,9194.94 5610.5,9171C 5569.14,9143.29 5548.14,9104.29 5547.5,9054C 5547.52,9014.24 5560.36,8979.41 5586,8949.5C 5611.58,8923.96 5642.41,8910.29 5678.5,8908.5 Z M 5680.5,8955.5 C 5717.43,8954.05 5746.26,8968.38 5767,8998.5C 5780.13,9023.62 5783.13,9049.95 5776,9077.5C 5761.16,9124.66 5729,9147.16 5679.5,9145C 5639.15,9140.43 5612.65,9118.93 5600,9080.5C 5591.77,9046.65 5597.77,9015.65 5618,8987.5C 5634.62,8968.44 5655.45,8957.77 5680.5,8955.5 Z"/></g>
<g><path style="opacity:0.982" fill="#fefffe" d="M 6143.5,8929.5 C 6154.17,8929.5 6164.83,8929.5 6175.5,8929.5C 6176.55,9020.17 6177.88,9110.84 6179.5,9201.5C 6140.83,9201.93 6102.17,9202.1 6063.5,9202C 6020.54,9199.44 5986.04,9181.27 5960,9147.5C 5937.99,9113.13 5930.99,9075.8 5939,9035.5C 5953.51,8978.66 5989.68,8944.83 6047.5,8934C 6052.49,8933.25 6057.49,8932.58 6062.5,8932C 6089.66,8931.13 6116.66,8930.3 6143.5,8929.5 Z M 6085.5,8976.5 C 6099.5,8976.5 6113.5,8976.5 6127.5,8976.5C 6128.74,9036.16 6129.74,9095.83 6130.5,9155.5C 6109.84,9156.43 6089.17,9156.6 6068.5,9156C 6028.18,9152.33 6001.35,9131.49 5988,9093.5C 5980.22,9063.39 5985.22,9035.73 6003,9010.5C 6018.44,8993.36 6037.61,8982.86 6060.5,8979C 6068.98,8978.09 6077.31,8977.26 6085.5,8976.5 Z"/></g>
</svg>
